<svg version="1.2" xmlns="http://www.w3.org/2000/svg" viewBox="0 0 150 26" width="150" height="26">
	<title>logo-svg</title>
	<style>
		.s0 { fill: #fafafa } 
		.s1 { fill: #e9493e } 
	</style>
	<g id="Layer">
		<g id="Layer">
			<path id="Layer" class="s0" d="m0.1 1.2h6.2v8.7h7v-8.7h6.2v23.4h-6.2v-9.3h-7v9.3h-6.2z"/>
			<path id="Layer" fill-rule="evenodd" class="s0" d="m21.9 12.8c0-7.7 4.4-12 10.9-12 6.5 0 10.9 4.4 10.9 12 0 7.7-4.4 12.2-10.9 12.2-6.6 0-10.9-4.5-10.9-12.2zm15.4 0c0-4.2-1.7-6.7-4.5-6.7-2.8 0-4.5 2.4-4.5 6.7 0 4.2 1.7 6.9 4.5 6.9 2.8 0 4.5-2.7 4.5-6.9z"/>
			<path id="Layer" class="s0" d="m48.1 17.4c1.7 1.3 3.7 2.3 5.5 2.3 1.9 0 2.7-0.6 2.7-1.7 0-1.1-1.2-1.5-3.2-2.3l-2.9-1.2c-2.5-1-4.7-3.1-4.7-6.5 0-4 3.6-7.3 8.7-7.3 2.7 0 5.6 1 7.8 3.1l-3.1 3.9c-1.6-1.1-3-1.7-4.7-1.7-1.5 0-2.4 0.5-2.4 1.6 0 1.1 1.3 1.5 3.5 2.3l2.8 1.1c2.9 1.2 4.6 3.2 4.6 6.4 0 4-3.3 7.5-9.1 7.5-3 0-6.3-1.1-8.9-3.3z"/>
			<path id="Layer" class="s0" d="m68.2 6.4h-6.2v-5.2h18.6v5.2h-6.2v18.2h-6.2z"/>
		</g>
		<g id="Layer">
			<path id="Layer" class="s1" d="m83.6 17.4c1.7 1.3 3.7 2.3 5.5 2.3 1.9 0 2.7-0.6 2.7-1.7 0-1.1-1.2-1.5-3.2-2.3l-2.9-1.2c-2.5-1-4.7-3.1-4.7-6.5 0-4 3.6-7.3 8.7-7.3 2.7 0 5.6 1 7.8 3.1l-3.1 3.9c-1.6-1.1-3-1.7-4.7-1.7-1.5 0-2.4 0.5-2.4 1.6 0 1.1 1.3 1.5 3.5 2.3l2.8 1.1c2.9 1.2 4.6 3.2 4.6 6.4 0 4-3.3 7.5-9.1 7.5-3 0-6.3-1.1-8.9-3.3z"/>
			<path id="Layer" class="s1" d="m100 1.2h6.2v18.2h8.9v5.2h-15v-23.4z"/>
			<path id="Layer" class="s1" d="m117.3 1.2h6.2v23.4h-6.2z"/>
			<path id="Layer" class="s1" d="m126.9 1.2h6.4l3.7 9.7 1.3 3.8h0.1l1.3-3.8 3.5-9.7h6.4v23.4h-5.8v-6.9c0-2.4 0.5-6 0.8-8.4h-0.1l-1.9 5.5-3.2 7.9h-2.3l-3.2-7.9-1.9-5.5h-0.1c0.3 2.3 0.8 6 0.8 8.4v6.9h-5.7v-23.4z"/>
		</g>
	</g>
</svg>