<svg version="1.2" xmlns="http://www.w3.org/2000/svg" viewBox="0 0 241 171" width="241" height="171"><defs><linearGradient id="P" gradientUnits="userSpaceOnUse"/><linearGradient id="g1" x2="1" href="#P" gradientTransform="matrix(-238.077,-209.328,182.044,-207.045,152.074,348.103)"><stop stop-color="#140033"/><stop offset=".48" stop-color="#75139a"/><stop offset="1" stop-color="#ff00bc"/></linearGradient><linearGradient id="g2" x2="1" href="#P" gradientTransform="matrix(227.003,13.288,-11.246,192.119,45.482,-94.194)"><stop stop-color="#7200a9"/><stop offset=".18" stop-color="#7200a9"/><stop offset=".41" stop-color="#ad28e6"/><stop offset=".48" stop-color="#ac33e2"/><stop offset=".6" stop-color="#aa48d9"/><stop offset="1" stop-color="#6f00a4"/></linearGradient><linearGradient id="g3" x2="1" href="#P" gradientTransform="matrix(0,-168.28,85.11,0,825.692,352.889)"><stop stop-color="#140033"/><stop offset=".48" stop-color="#75139a"/><stop offset="1" stop-color="#ff00bc"/></linearGradient><linearGradient id="g4" x2="1" href="#P" gradientTransform="matrix(0,-168.28,252.441,0,-239.791,316.889)"><stop stop-color="#140033"/><stop offset=".48" stop-color="#75139a"/><stop offset="1" stop-color="#ff00bc"/></linearGradient><linearGradient id="g5" x2="1" href="#P" gradientTransform="matrix(0,-168.28,85.11,0,1892.808,352.889)"><stop stop-color="#140033"/><stop offset=".48" stop-color="#75139a"/><stop offset="1" stop-color="#ff00bc"/></linearGradient><linearGradient id="g6" x2="1" href="#P" gradientTransform="matrix(0,-168.28,252.441,0,1833.325,352.889)"><stop stop-color="#140033"/><stop offset=".48" stop-color="#75139a"/><stop offset="1" stop-color="#ff00bc"/></linearGradient><linearGradient id="g7" x2="1" href="#P" gradientTransform="matrix(-95.863,-146.542,111.443,-72.902,3220.507,518.05)"><stop stop-color="#0a0059"/><stop offset="1" stop-color="#9a00b6"/></linearGradient><linearGradient id="g8" x2="1" href="#P" gradientTransform="matrix(-95.801,-146.448,126.796,-82.945,3253.216,503.394)"><stop stop-color="#0a0059"/><stop offset="1" stop-color="#9a00b6"/></linearGradient><linearGradient id="g9" x2="1" href="#P" gradientTransform="matrix(-96.532,-147.564,116.66,-76.315,3138.574,548.285)"><stop stop-color="#0a0059"/><stop offset="1" stop-color="#9a00b6"/></linearGradient><linearGradient id="g10" x2="1" href="#P" gradientTransform="matrix(-95.863,-146.542,111.443,-72.902,4287.623,518.05)"><stop stop-color="#0a0059"/><stop offset="1" stop-color="#9a00b6"/></linearGradient><linearGradient id="g11" x2="1" href="#P" gradientTransform="matrix(-95.801,-146.448,126.796,-82.945,4320.332,503.394)"><stop stop-color="#0a0059"/><stop offset="1" stop-color="#9a00b6"/></linearGradient><linearGradient id="g12" x2="1" href="#P" gradientTransform="matrix(-96.532,-147.564,116.66,-76.315,4205.69,548.285)"><stop stop-color="#0a0059"/><stop offset="1" stop-color="#9a00b6"/></linearGradient><linearGradient id="g13" x2="1" href="#P" gradientTransform="matrix(199.782,0,0,205.798,5611.277,188.426)"><stop stop-color="#af16ae"/><stop offset="1" stop-color="#10266f"/></linearGradient><linearGradient id="g14" x2="1" href="#P" gradientTransform="matrix(964.042,970.863,-970.863,964.042,6791.082,-647.018)"><stop stop-color="#af16ae"/><stop offset="1" stop-color="#10266f"/></linearGradient><linearGradient id="g15" x2="1" href="#P" gradientTransform="matrix(-309.216,-271.877,236.439,-268.912,-1558.194,1768.924)"><stop stop-color="#140033"/><stop offset=".48" stop-color="#75139a"/><stop offset="1" stop-color="#ff00bc"/></linearGradient><linearGradient id="g16" x2="1" href="#P" gradientTransform="matrix(-360.817,-317.247,324.197,-368.722,-1525.404,1650.665)"><stop stop-color="#140033"/><stop offset=".48" stop-color="#75139a"/><stop offset="1" stop-color="#ff00bc"/></linearGradient><linearGradient id="g17" x2="1" href="#P" gradientTransform="matrix(-309.216,-271.877,236.439,-268.912,-491.078,1768.924)"><stop stop-color="#140033"/><stop offset=".48" stop-color="#75139a"/><stop offset="1" stop-color="#ff00bc"/></linearGradient><linearGradient id="g18" x2="1" href="#P" gradientTransform="matrix(-360.817,-317.247,324.197,-368.722,-458.288,1650.665)"><stop stop-color="#140033"/><stop offset=".48" stop-color="#75139a"/><stop offset="1" stop-color="#ff00bc"/></linearGradient><linearGradient id="g19" x2="1" href="#P" gradientTransform="matrix(0,-200.905,101.611,0,823.618,1531.501)"><stop stop-color="#140033"/><stop offset=".48" stop-color="#75139a"/><stop offset="1" stop-color="#ff00bc"/></linearGradient><linearGradient id="g20" x2="1" href="#P" gradientTransform="matrix(0,-200.905,301.384,0,752.603,1531.501)"><stop stop-color="#140033"/><stop offset=".48" stop-color="#75139a"/><stop offset="1" stop-color="#ff00bc"/></linearGradient><linearGradient id="g21" x2="1" href="#P" gradientTransform="matrix(0,-200.905,101.611,0,1890.734,1531.501)"><stop stop-color="#140033"/><stop offset=".48" stop-color="#75139a"/><stop offset="1" stop-color="#ff00bc"/></linearGradient><linearGradient id="g22" x2="1" href="#P" gradientTransform="matrix(0,-200.905,301.384,0,1819.718,1531.501)"><stop stop-color="#140033"/><stop offset=".48" stop-color="#75139a"/><stop offset="1" stop-color="#ff00bc"/></linearGradient><linearGradient id="g23" x2="1" href="#P" gradientTransform="matrix(-137.86,-210.741,160.265,-104.84,3197.169,1782.185)"><stop stop-color="#0a0059"/><stop offset="1" stop-color="#9a00b6"/></linearGradient><linearGradient id="g24" x2="1" href="#P" gradientTransform="matrix(-137.771,-210.606,182.344,-119.283,3244.208,1761.109)"><stop stop-color="#0a0059"/><stop offset="1" stop-color="#9a00b6"/></linearGradient><linearGradient id="g25" x2="1" href="#P" gradientTransform="matrix(-138.821,-212.211,167.768,-109.748,3079.342,1825.665)"><stop stop-color="#0a0059"/><stop offset="1" stop-color="#9a00b6"/></linearGradient><linearGradient id="g26" x2="1" href="#P" gradientTransform="matrix(-137.86,-210.741,160.265,-104.84,4264.285,1782.185)"><stop stop-color="#0a0059"/><stop offset="1" stop-color="#9a00b6"/></linearGradient><linearGradient id="g27" x2="1" href="#P" gradientTransform="matrix(-137.771,-210.606,182.344,-119.283,4311.324,1761.109)"><stop stop-color="#0a0059"/><stop offset="1" stop-color="#9a00b6"/></linearGradient><linearGradient id="g28" x2="1" href="#P" gradientTransform="matrix(-138.821,-212.211,167.768,-109.748,4146.458,1825.665)"><stop stop-color="#0a0059"/><stop offset="1" stop-color="#9a00b6"/></linearGradient><linearGradient id="g29" x2="1" href="#P" gradientTransform="matrix(229.387,0,0,236.295,5596.475,1316.853)"><stop stop-color="#af16ae"/><stop offset="1" stop-color="#10266f"/></linearGradient><linearGradient id="g30" x2="1" href="#P" gradientTransform="matrix(1000,0,0,1000,6278.284,935)"><stop stop-color="#af16ae"/><stop offset="1" stop-color="#10266f"/></linearGradient></defs><style>tspan{white-space:pre}.a{font-size: 150px;fill: #ffffff;font-weight: 400;font-family: "IBMPlexSans-Regular", "IBM Plex Sans"}.b{font-size: 35px;fill: #ffffff;font-weight: 400;font-family: "IBMPlexSans-Regular", "IBM Plex Sans"}.c{fill:#130032}.d{fill:url(#g1)}.e{fill:url(#g2)}.f{fill:url(#g3)}.g{fill:url(#g4)}.h{fill:#f2f2f2}.i{fill:url(#g5)}.j{fill:url(#g6)}.k{fill:#fff}.l{fill:url(#g7)}.m{fill:url(#g8)}.n{fill:url(#g9)}.o{fill:url(#g10)}.p{fill:url(#g11)}.q{fill:url(#g12)}.r{fill:#10266f}.s{fill:url(#g13)}.t{fill:url(#g14)}.u{fill:#c600b9}.v{fill:url(#g15)}.w{fill:url(#g16)}.x{fill:url(#g17)}.y{fill:url(#g18)}.z{fill:url(#g19)}.A{fill:url(#g20)}.B{fill:url(#g21)}.C{fill:url(#g22)}.D{fill:url(#g23)}.E{fill:url(#g24)}.F{fill:url(#g25)}.G{fill:url(#g26)}.H{fill:url(#g27)}.I{fill:url(#g28)}.J{fill:url(#g29)}.K{fill:url(#g30)}</style><text style="transform:matrix(1,0,0,1,51.334,142.678)" ><tspan x="0" y="0" class="a"> </tspan><tspan  y="0" class="a"> </tspan><tspan  y="0" class="a"> </tspan><tspan  y="0" class="a"> </tspan><tspan  y="0" class="a"> </tspan><tspan  y="0" class="a"> </tspan><tspan  y="0" class="a">N</tspan><tspan  y="0" class="a">e</tspan><tspan  y="0" class="a">x</tspan><tspan  y="0" class="a">u</tspan><tspan  y="0" class="a">s</tspan><tspan  y="0" class="a">
</tspan><tspan x="0" y="180" class="b"> </tspan><tspan  y="180" class="a">W</tspan><tspan  y="180" class="a">e</tspan><tspan  y="180" class="a">b</tspan><tspan  y="180" class="a">s</tspan><tspan  y="180" class="a">i</tspan><tspan  y="180" class="a">t</tspan><tspan  y="180" class="a">e</tspan><tspan  y="180" class="a">s
</tspan></text><text style="transform:matrix(1,0,0,1,546,-163)" ></text><path class="c" d="m-33.9 843.6h-1000v-1000h1000z"/><path class="d" d="m58.8 96.6c5.1-9.7 6.4-21 3.5-31.5l-8.7-32c-2.8-10.4-12.2-17.6-22.9-17.6h-28.5l35.2 121.9z"/><path class="e" d="m236.1 158.3l-26.2-49.6-7.9-15c-3.3-6.6-7.4-14.5-13.2-25.2l-4.5-8.5-15.8-30c-7.9-14.9-15.8-17-27.1-17-11.1 0-18.7 2.1-26.6 17l-17.1 31.9-3.3 6c-4.8 9.1-8.6 16.5-11.9 22.8v0.2l-9.4 17.9-26.7 50.9c5.1 6.2 12.4 9.3 20.3 9.3 12.2 0 20.3-6.3 25.7-16l24.2-42.9c13.1-23.3 19.1-34.3 23.9-45.2 5.2 10.9 11.3 22.2 24.4 45.4l24.1 42.7c5.6 9.9 13.8 16 25.7 16 8.5 0 16.2-3.5 21.4-10.7z"/><path class="c" d="m759.3 376.5v58.8h-11.2l-29.3-35.7v35.7h-13.5v-58.8h11.3l29.2 35.7v-35.7z"/><path fill-rule="evenodd" class="c" d="m816.3 416.4h-34.2q0.9 4.2 4.4 6.6 3.4 2.5 8.6 2.5 3.5 0 6.2-1.1 2.7-1 5.1-3.3l7 7.6q-6.4 7.3-18.7 7.3-7.6 0-13.5-3-5.9-3-9.1-8.3-3.2-5.3-3.2-12 0-6.6 3.2-12 3.1-5.3 8.6-8.3 5.5-3 12.3-3 6.7 0 12.1 2.9 5.3 2.8 8.4 8.2 3.1 5.3 3.1 12.4 0 0.2-0.3 3.5zm-30.6-14.5q-3.1 2.5-3.7 6.9h22.2q-0.7-4.3-3.7-6.9-3-2.6-7.4-2.6-4.4 0-7.4 2.6z"/><path class="c" d="m852.8 435.3l-9.9-13.9-10.3 13.9h-14.3l17.4-22.8-16.8-22.4h14.7l9.6 13.2 9.8-13.2h14l-16.8 22.1 17.4 23.1z"/><path class="c" d="m918.7 390.1v45.2h-12.4v-5.4q-2.6 3-6.2 4.5-3.6 1.6-7.8 1.6-9 0-14.2-5.2-5.2-5.1-5.2-15.2v-25.5h13.1v23.6q0 10.9 9.2 10.9 4.7 0 7.6-3 2.8-3.1 2.8-9.2v-22.3z"/><path class="c" d="m935.1 434.6q-5.4-1.4-8.6-3.5l4.4-9.4q3 1.9 7.3 3.1 4.3 1.3 8.4 1.3 8.3 0 8.3-4.2 0-1.9-2.3-2.7-2.2-0.9-6.9-1.5-5.6-0.8-9.2-1.9-3.6-1.1-6.2-3.9-2.7-2.7-2.7-7.9 0-4.2 2.5-7.6 2.5-3.3 7.2-5.1 4.8-1.9 11.2-1.9 4.8 0 9.6 1.1 4.7 1 7.8 2.9l-4.3 9.3q-6-3.4-13.1-3.4-4.2 0-6.3 1.2-2.1 1.2-2.1 3 0 2.1 2.3 3 2.3 0.8 7.2 1.6 5.6 0.9 9.1 2 3.5 1 6.1 3.8 2.6 2.8 2.6 7.7 0 4.2-2.5 7.5-2.5 3.3-7.3 5.1-4.9 1.8-11.5 1.8-5.6 0-11-1.4z"/><path class="c" d="m770.2 458.5l-9.8 29.4h-4.4l-8-23.5-8 23.5h-4.5l-9.9-29.4h4.4l7.9 23.9 8.3-23.9h3.8l8.1 24 8.1-24z"/><path class="c" d="m796.7 484.2v3.7h-21.3v-29.4h20.7v3.6h-16.5v9.1h14.7v3.5h-14.7v9.5z"/><path fill-rule="evenodd" class="c" d="m827.3 475.2q1.5 1.9 1.5 4.8 0 3.8-2.9 5.8-2.9 2.1-8.4 2.1h-14v-29.4h13.2q5 0 7.8 2 2.7 2 2.7 5.6 0 2.3-1 4-1.1 1.7-2.9 2.5 2.5 0.8 4 2.6zm-19.6-13.3v9.4h8.6q3.2 0 5-1.2 1.7-1.2 1.7-3.5 0-2.3-1.7-3.5-1.8-1.2-5-1.2zm15.1 21.4q1.8-1.2 1.8-3.7 0-4.9-7.2-4.9h-9.7v9.8h9.7q3.5 0 5.4-1.2z"/><path class="c" d="m837.5 487.2q-3.1-1-4.9-2.7l1.6-3.2q1.6 1.5 4.3 2.4 2.6 1 5.4 1 3.6 0 5.4-1.3 1.8-1.2 1.8-3.3 0-1.5-1-2.4-0.9-1-2.4-1.5-1.4-0.5-4.1-1.1-3.3-0.8-5.3-1.6-2.1-0.8-3.5-2.5-1.5-1.6-1.5-4.4 0-2.4 1.3-4.3 1.2-1.9 3.7-3 2.5-1.1 6.3-1.1 2.6 0 5.1 0.6 2.5 0.7 4.3 2l-1.4 3.3q-1.8-1.2-3.9-1.8-2.1-0.6-4.1-0.6-3.6 0-5.4 1.3-1.8 1.3-1.8 3.4 0 1.5 1 2.4 1.1 1 2.5 1.5 1.5 0.5 4.1 1.1 3.3 0.8 5.3 1.6 2.1 0.8 3.5 2.5 1.4 1.6 1.5 4.4 0 2.3-1.3 4.2-1.3 1.9-3.8 3-2.6 1.1-6.3 1.1-3.4 0-6.4-1z"/><path class="c" d="m861.4 458.5h4.2v29.4h-4.2z"/><path class="c" d="m880.2 462.1h-10v-3.6h24.3v3.6h-10.1v25.8h-4.2z"/><path class="c" d="m920.4 484.2v3.7h-21.3v-29.4h20.7v3.6h-16.5v9.1h14.7v3.5h-14.7v9.5z"/><path class="c" d="m929.4 487.2q-3.1-1-4.9-2.7l1.6-3.2q1.6 1.5 4.3 2.4 2.6 1 5.4 1 3.6 0 5.4-1.3 1.8-1.2 1.8-3.3 0-1.5-1-2.4-0.9-1-2.4-1.5-1.4-0.5-4.1-1.1-3.3-0.8-5.3-1.6-2.1-0.8-3.5-2.5-1.5-1.6-1.5-4.4 0-2.4 1.3-4.3 1.2-1.9 3.7-3 2.5-1.1 6.3-1.1 2.6 0 5.1 0.6 2.5 0.7 4.3 2l-1.4 3.3q-1.8-1.2-3.9-1.8-2.1-0.6-4.1-0.6-3.6 0-5.4 1.3-1.8 1.3-1.8 3.4 0 1.5 1 2.4 1.1 1 2.5 1.5 1.5 0.5 4.1 1.1 3.3 0.8 5.3 1.6 2.1 0.8 3.5 2.5 1.4 1.6 1.4 4.4 0 2.3-1.2 4.2-1.3 1.9-3.8 3-2.6 1.1-6.3 1.1-3.4 0-6.4-1z"/><path class="f" d="m940.7 201.4c-10 0-18.9 6.7-21.5 16.4l-8.1 30c-2.7 9.9-1.5 20.4 3.2 29.5l20.1 38.2 33-114.1z"/><path class="g" d="m-113.4 238.6c-3.2-6.2-7.1-13.6-12.5-23.6l-4.2-8-14.8-28.1c-7.4-13.9-14.8-15.9-25.3-15.9-10.4 0-17.6 2-25 15.9l-16 29.9-3 5.6c-4.5 8.5-8.1 15.4-11.2 21.4l-0.1 0.1-8.1 15.5-23.3-86h-43.8l39.2 127.7c2.9 9.3 11.4 15.9 21.1 16q0.1 0 0.2 0c11.4 0 19-5.9 24.1-15l22.6-40.2c12.3-21.7 18-32.1 22.4-42.3 4.9 10.2 10.6 20.8 22.8 42.5l22.6 40c5.3 9.3 12.9 15 24.1 15 7.9 0 15.2-3.3 20-10l-24.4-46.4z"/><path class="c" d="m2403.5 843.6h-1000v-1000h1000z"/><path class="h" d="m1826.4 376.5v58.8h-11.2l-29.3-35.7v35.7h-13.4v-58.8h11.2l29.2 35.7v-35.7z"/><path fill-rule="evenodd" class="h" d="m1883.4 416.4h-34.2q1 4.2 4.4 6.6 3.5 2.5 8.6 2.5 3.5 0 6.2-1.1 2.8-1 5.1-3.3l7 7.6q-6.4 7.3-18.7 7.3-7.6 0-13.5-3-5.9-3-9.1-8.3-3.1-5.3-3.1-12 0-6.6 3.1-12 3.2-5.3 8.7-8.3 5.5-3 12.3-3 6.6 0 12 2.9 5.3 2.8 8.4 8.2 3.1 5.3 3.1 12.4 0 0.2-0.3 3.5zm-30.6-14.5q-3.1 2.5-3.7 6.9h22.2q-0.6-4.3-3.7-6.9-3-2.6-7.4-2.6-4.4 0-7.4 2.6z"/><path class="h" d="m1919.9 435.3l-9.9-13.9-10.3 13.9h-14.3l17.4-22.8-16.8-22.4h14.7l9.6 13.2 9.8-13.2h14l-16.8 22.1 17.5 23.1z"/><path class="h" d="m1985.8 390.1v45.2h-12.4v-5.4q-2.6 3-6.2 4.5-3.6 1.6-7.8 1.6-8.9 0-14.1-5.2-5.3-5.1-5.3-15.2v-25.5h13.2v23.6q-0.1 10.9 9.1 10.9 4.7 0 7.6-3 2.8-3.1 2.8-9.2v-22.3z"/><path class="h" d="m2002.2 434.6q-5.4-1.4-8.6-3.5l4.4-9.4q3 1.9 7.3 3.1 4.3 1.3 8.4 1.3 8.3 0 8.3-4.2 0-1.9-2.2-2.7-2.3-0.9-7-1.5-5.6-0.8-9.2-1.9-3.6-1.1-6.2-3.9-2.7-2.7-2.7-7.9 0-4.2 2.5-7.6 2.5-3.3 7.2-5.1 4.8-1.9 11.3-1.9 4.7 0 9.5 1.1 4.7 1 7.8 2.9l-4.3 9.3q-6-3.4-13-3.4-4.3 0-6.4 1.2-2.1 1.2-2.1 3 0 2.1 2.3 3 2.3 0.8 7.2 1.6 5.6 0.9 9.1 2 3.5 1 6.1 3.8 2.7 2.8 2.7 7.7 0 4.2-2.6 7.5-2.5 3.3-7.3 5.1-4.9 1.8-11.5 1.8-5.6 0-11-1.4z"/><path class="h" d="m1837.4 458.5l-9.9 29.4h-4.4l-8-23.5-8 23.5h-4.5l-9.9-29.4h4.4l7.9 23.9 8.3-23.9h3.9l8.1 24 8.1-24z"/><path class="h" d="m1863.8 484.2v3.7h-21.3v-29.4h20.7v3.6h-16.5v9.1h14.7v3.5h-14.7v9.5z"/><path fill-rule="evenodd" class="h" d="m1894.4 475.2q1.5 1.9 1.5 4.8 0 3.8-2.9 5.8-2.9 2.1-8.4 2.1h-14v-29.4h13.2q5 0 7.8 2 2.8 2 2.8 5.6 0 2.3-1.1 4-1.1 1.7-2.9 2.5 2.6 0.8 4 2.6zm-19.6-13.3v9.4h8.6q3.3 0 5-1.2 1.8-1.2 1.7-3.5 0.1-2.3-1.7-3.5-1.7-1.2-5-1.2zm15.1 21.4q1.8-1.2 1.8-3.7 0-4.9-7.2-4.9h-9.7v9.8h9.7q3.6 0 5.4-1.2z"/><path class="h" d="m1904.6 487.2q-3.1-1-4.9-2.7l1.6-3.2q1.7 1.5 4.3 2.4 2.6 1 5.4 1 3.6 0 5.4-1.3 1.8-1.2 1.8-3.3 0.1-1.5-0.9-2.4-1-1-2.5-1.5-1.4-0.5-4.1-1.1-3.3-0.8-5.3-1.6-2.1-0.8-3.5-2.5-1.5-1.6-1.5-4.4 0-2.4 1.3-4.3 1.2-1.9 3.7-3 2.6-1.1 6.3-1.1 2.6 0 5.1 0.6 2.5 0.7 4.3 2l-1.3 3.3q-1.9-1.2-4-1.8-2.1-0.6-4.1-0.6-3.6 0-5.4 1.3-1.7 1.3-1.7 3.4 0 1.5 1 2.4 1 1 2.5 1.5 1.5 0.5 4 1.1 3.3 0.8 5.4 1.6 2 0.8 3.4 2.5 1.5 1.6 1.5 4.4 0 2.3-1.3 4.2-1.3 1.9-3.8 3-2.6 1.1-6.3 1.1-3.3 0-6.4-1z"/><path class="h" d="m1928.5 458.5h4.2v29.4h-4.2z"/><path class="h" d="m1947.4 462.1h-10.1v-3.6h24.3v3.6h-10.1v25.8h-4.1z"/><path class="h" d="m1987.5 484.2v3.7h-21.3v-29.4h20.7v3.6h-16.5v9.1h14.7v3.5h-14.7v9.5z"/><path class="h" d="m1996.5 487.2q-3.1-1-4.9-2.7l1.6-3.2q1.7 1.5 4.3 2.4 2.6 1 5.4 1 3.6 0 5.4-1.3 1.8-1.2 1.8-3.3 0-1.5-0.9-2.4-1-1-2.5-1.5-1.4-0.5-4.1-1.1-3.3-0.8-5.3-1.6-2.1-0.8-3.5-2.5-1.5-1.6-1.5-4.4 0-2.4 1.3-4.3 1.2-1.9 3.7-3 2.6-1.1 6.3-1.1 2.6 0 5.1 0.6 2.5 0.7 4.3 2l-1.3 3.3q-1.9-1.2-4-1.8-2.1-0.6-4.1-0.6-3.6 0-5.4 1.3-1.7 1.3-1.7 3.4 0 1.5 1 2.4 1 1 2.5 1.5 1.5 0.5 4 1.1 3.3 0.8 5.4 1.6 2 0.8 3.4 2.5 1.5 1.6 1.5 4.4 0 2.3-1.3 4.2-1.3 1.9-3.8 3-2.6 1.1-6.3 1.1-3.3 0-6.4-1z"/><path class="i" d="m2007.9 201.4c-10.1 0-18.9 6.7-21.6 16.4l-8.1 30c-2.7 9.9-1.5 20.4 3.3 29.5l20 38.2 33.1-114.1z"/><path class="j" d="m1959.7 274.6c-3.1-6.2-7-13.6-12.5-23.6l-4.1-8-14.9-28.1c-7.4-13.9-14.8-15.9-25.3-15.9-10.4 0-17.6 2-25 15.9l-16 29.9-3 5.6c-4.5 8.5-8.1 15.4-11.2 21.4v0.1l-8.2 15.5-23.3-86h-43.7l39.2 127.7c2.8 9.3 11.3 15.9 21 16q0.1 0 0.2 0c11.4 0 19-5.9 24.1-15l22.6-40.2c12.3-21.7 18-32.1 22.4-42.3 4.9 10.2 10.6 20.8 22.8 42.5l22.7 40c5.2 9.3 12.8 15 24 15 7.9 0 15.2-3.3 20-10l-24.4-46.4z"/><path class="k" d="m3773.8 843.6h-1000v-1000h1000z"/><path class="c" d="m3197.3 384.8v58.3h-11.1l-29.1-35.4v35.4h-13.4v-58.3h11.2l29 35.4v-35.4z"/><path fill-rule="evenodd" class="c" d="m3253.9 424.4h-34q0.9 4.2 4.4 6.6 3.4 2.4 8.5 2.4 3.5 0 6.2-1.1 2.7-1 5-3.3l6.9 7.6q-6.3 7.2-18.5 7.2-7.6 0-13.4-3-5.8-2.9-9-8.2-3.2-5.2-3.2-11.9 0-6.6 3.2-11.9 3.1-5.3 8.6-8.2 5.4-3 12.2-3 6.6 0 11.9 2.9 5.3 2.8 8.4 8.1 3 5.3 3 12.3 0 0.2-0.2 3.5zm-30.5-14.4q-3 2.5-3.6 6.8h22.1q-0.7-4.3-3.7-6.8-3-2.5-7.3-2.5-4.5 0-7.5 2.5z"/><path class="c" d="m3290 443.1l-9.8-13.7-10.2 13.7h-14.1l17.2-22.6-16.7-22.2h14.6l9.5 13.1 9.8-13.1h13.8l-16.6 21.9 17.3 22.9z"/><path class="c" d="m3355.5 398.3v44.8h-12.4v-5.3q-2.6 2.9-6.1 4.5-3.6 1.5-7.8 1.5-8.8 0-14-5.1-5.2-5.1-5.2-15.1v-25.3h13v23.4q0 10.9 9.1 10.9 4.7 0 7.5-3.1 2.9-3 2.9-9v-22.2z"/><path class="c" d="m3371.7 442.4q-5.3-1.3-8.5-3.4l4.4-9.4q3 2 7.2 3.2 4.3 1.2 8.3 1.2 8.3 0 8.3-4.1 0-1.9-2.3-2.8-2.2-0.8-6.9-1.4-5.5-0.8-9.1-1.9-3.5-1.1-6.2-3.8-2.6-2.8-2.6-7.9 0-4.2 2.5-7.5 2.4-3.3 7.1-5.1 4.7-1.9 11.2-1.9 4.7 0 9.4 1.1 4.7 1 7.8 2.8l-4.3 9.3q-5.9-3.3-12.9-3.3-4.2 0-6.3 1.1-2.1 1.2-2.1 3 0 2.1 2.3 2.9 2.2 0.9 7.1 1.6 5.5 0.9 9 2 3.5 1 6.1 3.8 2.6 2.7 2.6 7.7 0 4.1-2.5 7.4-2.5 3.2-7.3 5-4.8 1.8-11.4 1.8-5.5 0-10.9-1.4z"/><path class="c" d="m3208.1 463.3l-9.7 29.2h-4.4l-7.9-23.3-8 23.3h-4.5l-9.7-29.2h4.3l7.8 23.7 8.3-23.7h3.8l8 23.8 8.1-23.8z"/><path class="c" d="m3234.4 488.8v3.7h-21.2v-29.2h20.6v3.6h-16.4v9h14.6v3.5h-14.6v9.4z"/><path fill-rule="evenodd" class="c" d="m3264.8 479.9q1.4 1.8 1.4 4.7 0 3.8-2.8 5.8-2.9 2.1-8.3 2.1h-14v-29.2h13.1q5 0 7.8 2 2.7 2 2.7 5.5 0 2.3-1.1 4-1 1.7-2.8 2.5 2.5 0.7 4 2.6zm-19.5-13.2v9.3h8.6q3.2 0 4.9-1.2 1.7-1.2 1.7-3.5 0-2.3-1.7-3.5-1.7-1.1-4.9-1.1zm14.9 21.2q1.8-1.2 1.8-3.7 0-4.8-7.2-4.8h-9.5v9.7h9.5q3.6 0 5.4-1.2z"/><path class="c" d="m3274.8 491.8q-3-1.1-4.8-2.7l1.6-3.2q1.6 1.5 4.2 2.4 2.6 0.9 5.4 0.9 3.6 0 5.4-1.2 1.8-1.2 1.8-3.3 0-1.5-1-2.4-1-0.9-2.4-1.4-1.4-0.5-4.1-1.2-3.2-0.7-5.3-1.5-2-0.8-3.4-2.5-1.5-1.6-1.5-4.4 0-2.3 1.3-4.2 1.2-1.9 3.7-3 2.5-1.2 6.2-1.2 2.6 0.1 5.1 0.7 2.5 0.7 4.3 1.9l-1.4 3.4q-1.8-1.2-3.9-1.8-2.1-0.6-4.1-0.6-3.5 0-5.3 1.3-1.8 1.3-1.8 3.3 0 1.5 1 2.5 1 0.9 2.5 1.4 1.5 0.5 4 1.1 3.3 0.8 5.3 1.6 2 0.8 3.5 2.4 1.4 1.6 1.4 4.4 0 2.3-1.3 4.2-1.2 1.9-3.8 3-2.5 1.1-6.2 1.1-3.3 0-6.4-1z"/><path class="c" d="m3298.6 463.3h4.1v29.2h-4.1z"/><path class="c" d="m3317.3 466.9h-10v-3.6h24.1v3.6h-10v25.6h-4.1z"/><path class="c" d="m3357.1 488.8v3.7h-21.1v-29.2h20.5v3.6h-16.4v9h14.7v3.5h-14.7v9.4z"/><path class="c" d="m3366 491.8q-3-1.1-4.8-2.7l1.6-3.2q1.6 1.5 4.2 2.4 2.6 0.9 5.4 0.9 3.6 0 5.4-1.2 1.8-1.2 1.8-3.3 0-1.5-1-2.4-1-0.9-2.4-1.4-1.4-0.5-4.1-1.2-3.3-0.7-5.3-1.5-2-0.8-3.4-2.5-1.5-1.6-1.5-4.4 0-2.3 1.3-4.2 1.2-1.9 3.7-3 2.5-1.2 6.2-1.2 2.6 0.1 5.1 0.7 2.5 0.7 4.3 1.9l-1.4 3.4q-1.8-1.2-3.9-1.8-2.1-0.6-4.1-0.6-3.5 0-5.3 1.3-1.8 1.3-1.8 3.3 0 1.5 1 2.5 1 0.9 2.5 1.4 1.5 0.5 4 1.1 3.3 0.8 5.3 1.6 2 0.8 3.4 2.4 1.5 1.6 1.5 4.4 0 2.3-1.3 4.2-1.2 1.9-3.8 3-2.5 1.1-6.2 1.1-3.3 0-6.4-1z"/><path class="l" d="m3359.3 274.2q0-0.9 0-1.8-0.1-1.5-0.2-3c-2.8-30.4-22.8-56-50.6-67.9 27.7 13.7 46.8 42.2 46.8 75.1 0 33-19.1 61.5-46.8 75.2 28.7-12.2 49.1-39.2 50.8-70.9q0-1 0-1.9 0.1-1.2 0.1-2.4 0-1.2-0.1-2.4z"/><path class="m" d="m3340.8 318.9q0.9-1.5 1.7-2.9 0.4-0.8 0.8-1.6 0.4-0.8 0.8-1.6 0.4-0.8 0.8-1.6 0.1-0.2 0.2-0.4 0.3-0.7 0.6-1.5 0.9-1.9 1.6-3.9 0.4-1 0.7-2 0 0 0 0 0.8-2.2 1.4-4.4 0.3-1.1 0.6-2.3 0 0 0 0 0.3-1 0.5-2.1 0.2-1 0.4-2.1 0 0 0 0 0.3-1.4 0.5-2.8 0.1-0.1 0.1-0.2 0.4-2.7 0.6-5.5 0.1-0.9 0.2-1.7 0-0.7 0.1-1.4 0-0.7 0-1.3 0-0.5 0-0.9 0.1-1 0.1-2.1 0-0.5 0-1 0-0.5-0.1-1 0-0.5 0-0.9 0-0.7 0-1.3-0.1-0.5-0.1-1.1 0-0.4-0.1-0.9 0-0.8-0.1-1.6-0.1-0.8-0.2-1.5-0.1-1-0.2-2-0.2-1.2-0.4-2.4-0.1-0.8-0.3-1.6-0.1-0.8-0.3-1.5-0.2-0.9-0.4-1.8-0.2-1.1-0.5-2.2 0-0.2-0.1-0.4-0.2-0.6-0.3-1.2-0.2-0.6-0.4-1.3-0.2-0.6-0.4-1.1-0.1-0.6-0.3-1-0.1-0.5-0.3-1-0.2-0.5-0.4-1-0.2-0.6-0.4-1.1-0.7-1.9-1.5-3.8-1.1-2.5-2.4-5-0.8-1.5-1.6-3 0 0 0 0-0.5-0.9-1-1.7-0.3-0.6-0.7-1.1-0.2-0.3-0.3-0.5-0.4-0.6-0.8-1.2-0.3-0.5-0.7-1.1-0.8-1.2-1.7-2.4-0.6-0.8-1.2-1.5-0.1-0.1-0.2-0.3-0.1-0.1-0.1-0.2-0.3-0.3-0.6-0.6-0.1-0.2-0.2-0.4-0.5-0.6-1-1.2-0.7-0.7-1.3-1.5-0.3-0.3-0.6-0.6-0.3-0.3-0.6-0.6-0.4-0.5-0.9-1 0 0 0 0-0.2-0.2-0.4-0.5-0.5-0.5-1-1-0.1-0.1-0.2-0.2-0.6-0.6-1.2-1.1-0.2-0.2-0.4-0.4-0.5-0.5-1.1-1-1.7-1.6-3.5-3-0.8-0.7-1.7-1.4-0.7-0.5-1.5-1.1-0.7-0.5-1.4-1-0.9-0.6-1.8-1.2-2.5-1.7-5.1-3.1-0.9-0.5-1.7-1-0.3-0.1-0.7-0.3-0.6-0.3-1.2-0.6-0.6-0.4-1.2-0.7-1-0.4-2-0.9c-10.2-4.5-21.4-7-33.2-7q-0.1 0-0.2 0-4.5 0.1-8.8 0.7v16.8q4.2-0.6 8.7-0.6 4.4 0 8.6 0.6 6.4 0.9 12.4 2.9c6.2 2.1 12.1 5.2 17.3 9 5.5 4 10.3 8.8 14.2 14.2q0.8 1 1.4 2 0.7 1 1.4 2 0.5 0.9 1.1 1.9 0.5 0.8 1 1.8 0 0 0 0.1 0.4 0.6 0.7 1.3 0.6 1.1 1.1 2.2 0.2 0.3 0.3 0.7 0.7 1.4 1.2 2.9 0.2 0.3 0.3 0.7 0.6 1.5 1.1 3.1 0.1 0.5 0.3 1 0 0 0 0.1 0.2 0.5 0.3 0.9 0.1 0.3 0.1 0.6 0.2 0.4 0.3 0.8 0 0.2 0 0.3 0.1 0.4 0.3 0.9 0 0 0 0.1 0.2 0.7 0.3 1.3 0.2 0.8 0.3 1.6 0.1 0.4 0.2 0.8 0.1 0.8 0.2 1.5 0.1 0.5 0.1 1 0.1 0.1 0.1 0.1 0 0.3 0 0.5 0 0.1 0 0.1 0.1 0.2 0.1 0.4 0.1 0.9 0.2 1.8 0.1 0.8 0.1 1.5 0 0.3 0 0.7 0.1 0.9 0.1 1.8 0 0.1 0 0.1 0 0.5 0 1 0.1 0.5 0.1 0.9 0 0 0 0.1 0 0.9-0.1 1.8 0 0.1 0 0.2 0 0.7 0 1.4 0 0.4-0.1 0.8 0 0.7-0.1 1.4-0.2 2.3-0.6 4.6-0.1 0.7-0.2 1.4-0.1 0.4-0.2 0.9 0 0 0 0.1 0 0.4-0.1 0.7 0 0.1-0.1 0.1 0 0.5-0.2 1 0 0 0 0.1 0 0 0 0-0.1 0.4-0.2 0.9 0 0 0 0.1-0.1 0.2-0.1 0.5-0.1 0.5-0.3 0.9-0.6 2.2-1.3 4.3 0 0 0 0.1c-4.4 12.7-12.6 23.6-23.3 31.4v-0.1-90.7c-5.1-4.4-10.9-7.9-17.3-10.4v110q-6 2.1-12.4 2.9v-116.1q-4.2-0.7-8.6-0.7-4.5 0-8.7 0.7v133.3q4 0.4 8.2 0.5h0.5q0 0 0 0h0.1q4.3 0 8.5-0.5c4.3-0.4 8.4-1.1 12.4-2.2q6.4-1.7 12.5-4.4c15.5-6.9 28.4-18.4 37.1-32.8z"/><path class="n" d="m3232 203.9l0.2 90-0.2-0.2-26.7-66.4-0.2-0.6q-0.2 0.3-0.5 0.6c-9.7 12.9-15.6 28.7-16.4 45.9q0 1.7 0 3.4 0 1.3 0 2.6 0 1 0.1 2 0.1 0.9 0.1 1.9 0.1 0.9 0.2 1.9 0.1 0.8 0.2 1.7 0.1 0.8 0.2 1.7c3.1 21.1 14.1 39.6 29.9 52.3q0.6 0.5 1.3 1v-23.7c-9.3-11.2-14.9-25.6-14.9-41.4q0-6.3 1.2-12.4l25.5 65v20.1c4.8 2.6 9.8 4.6 15 6.1q1.3 0.4 2.5 0.7v-159q-1.2 0.4-2.5 0.7c-5.2 1.6-10.2 3.6-15 6.1z"/><path class="c" d="m4840.9 843.6h-1000v-1000h1000z"/><path class="h" d="m4264.4 384.8v58.3h-11.1l-29.1-35.4v35.4h-13.3v-58.3h11.1l29 35.4v-35.4z"/><path fill-rule="evenodd" class="h" d="m4321 424.4h-34q1 4.2 4.4 6.6 3.4 2.4 8.5 2.4 3.5 0 6.2-1.1 2.7-1 5-3.3l7 7.6q-6.4 7.2-18.5 7.2-7.6 0-13.5-3-5.8-2.9-9-8.2-3.1-5.2-3.1-11.9 0-6.6 3.1-11.9 3.1-5.3 8.6-8.2 5.4-3 12.2-3 6.6 0 11.9 2.9 5.3 2.8 8.4 8.1 3 5.3 3 12.3 0 0.2-0.2 3.5zm-30.5-14.4q-3 2.5-3.6 6.8h22.1q-0.7-4.3-3.7-6.8-3-2.5-7.3-2.5-4.5 0-7.5 2.5z"/><path class="h" d="m4357.1 443.1l-9.8-13.7-10.2 13.7h-14.1l17.2-22.6-16.6-22.2h14.5l9.5 13.1 9.8-13.1h13.8l-16.6 21.9 17.3 22.9z"/><path class="h" d="m4422.6 398.3v44.8h-12.4v-5.3q-2.5 2.9-6.1 4.5-3.6 1.5-7.8 1.5-8.8 0-14-5.1-5.1-5.1-5.1-15.1v-25.3h13v23.4q0 10.9 9 10.9 4.7 0 7.5-3.1 2.9-3 2.9-9v-22.2z"/><path class="h" d="m4438.8 442.4q-5.3-1.3-8.5-3.4l4.4-9.4q3 2 7.2 3.2 4.3 1.2 8.4 1.2 8.2 0 8.2-4.1 0-1.9-2.2-2.8-2.3-0.8-7-1.4-5.5-0.8-9-1.9-3.6-1.1-6.3-3.8-2.6-2.8-2.6-7.9 0-4.2 2.5-7.5 2.4-3.3 7.1-5.1 4.8-1.9 11.2-1.9 4.7 0 9.4 1.1 4.7 1 7.8 2.8l-4.3 9.3q-5.9-3.3-12.9-3.3-4.2 0-6.3 1.1-2.1 1.2-2.1 3 0 2.1 2.3 2.9 2.2 0.9 7.2 1.6 5.5 0.9 9 2 3.5 1 6 3.8 2.6 2.7 2.6 7.7 0 4.1-2.5 7.4-2.5 3.2-7.3 5-4.8 1.8-11.3 1.8-5.6 0-11-1.4z"/><path class="h" d="m4275.3 463.3l-9.8 29.2h-4.4l-7.9-23.3-8 23.3h-4.5l-9.7-29.2h4.3l7.9 23.7 8.2-23.7h3.8l8.1 23.8 8-23.8z"/><path class="h" d="m4301.5 488.8v3.7h-21.2v-29.2h20.6v3.6h-16.4v9h14.6v3.5h-14.6v9.4z"/><path fill-rule="evenodd" class="h" d="m4331.9 479.9q1.5 1.8 1.5 4.7 0 3.8-2.9 5.8-2.9 2.1-8.3 2.1h-13.9v-29.2h13q5 0 7.8 2 2.7 2 2.7 5.5 0 2.3-1.1 4-1 1.7-2.8 2.5 2.5 0.7 4 2.6zm-19.5-13.2v9.3h8.6q3.2 0 4.9-1.2 1.7-1.2 1.7-3.5 0-2.3-1.7-3.5-1.7-1.1-4.9-1.1zm14.9 21.2q1.8-1.2 1.8-3.7 0-4.8-7.1-4.8h-9.6v9.7h9.6q3.5 0 5.3-1.2z"/><path class="h" d="m4342 491.8q-3.1-1.1-4.9-2.7l1.6-3.2q1.7 1.5 4.3 2.4 2.6 0.9 5.3 0.9 3.6 0 5.4-1.2 1.8-1.2 1.8-3.3 0-1.5-1-2.4-0.9-0.9-2.4-1.4-1.4-0.5-4-1.2-3.3-0.7-5.3-1.5-2.1-0.8-3.5-2.5-1.4-1.6-1.4-4.4 0-2.3 1.2-4.2 1.2-1.9 3.7-3 2.5-1.2 6.2-1.2 2.6 0.1 5.1 0.7 2.5 0.7 4.3 1.9l-1.4 3.4q-1.8-1.2-3.9-1.8-2.1-0.6-4.1-0.6-3.5 0-5.3 1.3-1.8 1.3-1.8 3.3 0 1.5 1 2.5 1 0.9 2.5 1.4 1.5 0.5 4 1.1 3.3 0.8 5.3 1.6 2 0.8 3.5 2.4 1.4 1.6 1.4 4.4 0 2.3-1.2 4.2-1.3 1.9-3.8 3-2.6 1.1-6.3 1.1-3.3 0-6.3-1z"/><path class="h" d="m4365.7 463.3h4.2v29.2h-4.2z"/><path class="h" d="m4384.4 466.9h-10v-3.6h24.1v3.6h-10v25.6h-4.1z"/><path class="h" d="m4424.2 488.8v3.7h-21.1v-29.2h20.6v3.6h-16.5v9h14.7v3.5h-14.7v9.4z"/><path class="h" d="m4433.1 491.8q-3-1.1-4.8-2.7l1.6-3.2q1.6 1.5 4.2 2.4 2.7 0.9 5.4 0.9 3.6 0 5.4-1.2 1.8-1.2 1.8-3.3 0-1.5-1-2.4-0.9-0.9-2.4-1.4-1.4-0.5-4-1.2-3.3-0.7-5.4-1.5-2-0.8-3.4-2.5-1.5-1.6-1.5-4.4 0-2.3 1.3-4.2 1.2-1.9 3.7-3 2.5-1.2 6.2-1.2 2.6 0.1 5.1 0.7 2.5 0.7 4.3 1.9l-1.4 3.4q-1.8-1.2-3.9-1.8-2.1-0.6-4.1-0.6-3.5 0-5.3 1.3-1.8 1.3-1.8 3.3 0 1.5 1 2.5 1 0.9 2.5 1.4 1.5 0.5 4 1.1 3.3 0.8 5.3 1.6 2 0.8 3.5 2.4 1.4 1.6 1.4 4.4 0 2.3-1.3 4.2-1.2 1.9-3.7 3-2.6 1.1-6.3 1.1-3.3 0-6.4-1z"/><path class="o" d="m4426.5 274.2q-0.1-0.9-0.1-1.8-0.1-1.5-0.2-3c-2.8-30.4-22.8-56-50.6-67.9 27.7 13.7 46.8 42.2 46.8 75.1 0 33-19.1 61.5-46.8 75.2 28.7-12.2 49.1-39.2 50.8-70.9q0-1 0.1-1.9 0-1.2 0-2.4 0-1.2 0-2.4z"/><path class="p" d="m4407.9 318.9q0.9-1.5 1.7-2.9 0.4-0.8 0.8-1.6 0.4-0.8 0.8-1.6 0.4-0.8 0.8-1.6 0.1-0.2 0.2-0.4 0.3-0.7 0.7-1.5 0.8-1.9 1.5-3.9 0.4-1 0.7-2 0 0 0 0 0.8-2.2 1.4-4.4 0.3-1.1 0.6-2.3 0 0 0 0 0.3-1 0.5-2.1 0.2-1 0.5-2.1 0 0 0 0 0.2-1.4 0.5-2.8 0-0.1 0-0.2 0.4-2.7 0.7-5.5 0-0.9 0.1-1.7 0-0.7 0.1-1.4 0-0.7 0-1.3 0-0.5 0.1-0.9 0-1 0-2.1 0-0.5 0-1 0-0.5 0-1-0.1-0.5-0.1-0.9 0-0.7 0-1.3-0.1-0.5-0.1-1.1 0-0.4-0.1-0.9 0-0.8-0.1-1.6-0.1-0.8-0.1-1.5-0.2-1-0.3-2-0.2-1.2-0.4-2.4-0.1-0.8-0.3-1.6-0.1-0.8-0.3-1.5-0.1-0.9-0.3-1.8-0.3-1.1-0.6-2.2 0-0.2-0.1-0.4-0.1-0.6-0.3-1.2-0.2-0.6-0.4-1.3-0.2-0.6-0.3-1.1-0.2-0.6-0.4-1-0.1-0.5-0.3-1-0.2-0.5-0.4-1-0.2-0.6-0.4-1.1-0.7-1.9-1.5-3.8-1.1-2.5-2.3-5-0.8-1.5-1.7-3 0 0 0 0-0.5-0.9-1-1.7-0.3-0.6-0.7-1.1-0.1-0.3-0.3-0.5-0.4-0.6-0.8-1.2-0.3-0.5-0.7-1.1-0.8-1.2-1.7-2.4-0.6-0.8-1.2-1.5 0-0.1-0.2-0.3 0-0.1-0.1-0.2-0.3-0.3-0.6-0.6-0.1-0.2-0.2-0.4-0.5-0.6-1-1.2-0.7-0.7-1.3-1.5-0.3-0.3-0.6-0.6-0.3-0.3-0.5-0.6-0.5-0.5-0.9-1 0 0-0.1 0-0.2-0.2-0.4-0.5-0.5-0.5-1-1-0.1-0.1-0.2-0.2-0.6-0.6-1.2-1.1-0.2-0.2-0.4-0.4-0.5-0.5-1.1-1-1.7-1.6-3.5-3-0.8-0.7-1.7-1.4-0.7-0.5-1.5-1.1-0.7-0.5-1.4-1-0.9-0.6-1.7-1.2-2.6-1.7-5.2-3.1-0.8-0.5-1.7-1-0.3-0.1-0.7-0.3-0.6-0.3-1.2-0.6-0.6-0.4-1.2-0.7-1-0.4-2-0.9c-10.1-4.5-21.4-7-33.2-7q-0.1 0-0.2 0-4.5 0.1-8.8 0.7v16.8q4.2-0.6 8.7-0.6 4.4 0 8.7 0.6 6.4 0.9 12.3 2.9c6.3 2.1 12.1 5.2 17.3 9 5.5 4 10.3 8.8 14.3 14.2q0.7 1 1.3 2 0.7 1 1.4 2 0.6 0.9 1.1 1.9 0.5 0.8 1 1.8 0 0 0.1 0.1 0.3 0.6 0.6 1.3 0.6 1.1 1.1 2.2 0.2 0.3 0.3 0.7 0.7 1.4 1.2 2.9 0.2 0.3 0.3 0.7 0.6 1.5 1.1 3.1 0.2 0.5 0.3 1 0 0 0 0.1 0.2 0.5 0.3 0.9 0.1 0.3 0.2 0.6 0.1 0.4 0.2 0.8 0 0.2 0.1 0.3 0.1 0.4 0.2 0.9 0 0 0 0.1 0.2 0.7 0.3 1.3 0.2 0.8 0.3 1.6 0.1 0.4 0.2 0.8 0.1 0.8 0.2 1.5 0.1 0.5 0.2 1 0 0.1 0 0.1 0 0.3 0 0.5 0.1 0.1 0.1 0.1 0 0.2 0 0.4 0.1 0.9 0.2 1.8 0.1 0.8 0.1 1.5 0 0.3 0.1 0.7 0 0.9 0 1.8 0.1 0.1 0.1 0.1 0 0.5 0 1 0 0.5 0 0.9 0 0 0 0.1 0 0.9 0 1.8 0 0.1-0.1 0.2 0 0.7 0 1.4 0 0.4-0.1 0.8 0 0.7-0.1 1.4-0.2 2.3-0.5 4.6-0.1 0.7-0.3 1.4 0 0.4-0.1 0.9-0.1 0-0.1 0.1 0 0.4-0.1 0.7 0 0.1 0 0.1-0.1 0.5-0.2 1 0 0-0.1 0.1 0 0 0 0-0.1 0.4-0.2 0.9 0 0 0 0.1 0 0.2-0.1 0.5-0.1 0.5-0.3 0.9-0.6 2.2-1.3 4.3 0 0 0 0.1c-4.4 12.7-12.6 23.6-23.3 31.4v-0.1-90.7c-5.1-4.4-10.9-7.9-17.3-10.4v110q-5.9 2.1-12.3 2.9v-116.1q-4.3-0.7-8.7-0.7-4.5 0-8.7 0.7v133.3q4 0.4 8.2 0.5h0.5q0 0 0 0h0.1q4.4 0 8.6-0.5c4.2-0.4 8.3-1.1 12.3-2.2q6.5-1.7 12.5-4.4c15.5-6.9 28.4-18.4 37.1-32.8z"/><path class="q" d="m4299.2 203.9l0.1 90-0.1-0.2-26.8-66.4-0.2-0.6q-0.2 0.3-0.5 0.6c-9.6 12.9-15.6 28.7-16.3 45.9q-0.1 1.7-0.1 3.4 0 1.3 0 2.6 0.1 1 0.1 2 0.1 0.9 0.2 1.9 0 0.9 0.1 1.9 0.1 0.8 0.2 1.7 0.1 0.8 0.3 1.7c3 21.1 14 39.6 29.8 52.3q0.7 0.5 1.3 1v-23.7c-9.3-11.2-14.9-25.6-14.9-41.4q0-6.3 1.2-12.4l25.6 65v20.1c4.7 2.6 9.7 4.6 15 6.1q1.2 0.4 2.4 0.7v-159q-1.2 0.4-2.4 0.7c-5.3 1.6-10.3 3.6-15 6.1z"/><path class="k" d="m6211.2 843.6h-1000v-1000h1000z"/><path class="r" d="m5651.6 412.6v45.7h-11.1l-18.7-28.2v28.2h-11.1v-45.7h11.1l18.7 28.3v-28.3z"/><path fill-rule="evenodd" class="r" d="m5675.9 458.9c-10.7 0-18.4-7.2-18.4-18.7 0-11.6 7.6-18.7 18.4-18.7 10.6 0 18.1 7 18.1 18.1 0 1-0.1 2.1-0.2 3.2h-25.2c0.4 4.8 3.3 7 6.9 7 3.1 0 4.9-1.6 5.8-3.5h11.8c-1.7 7.1-8.2 12.6-17.2 12.6zm-7.3-22.3h14c0-3.9-3.1-6.2-6.9-6.2-3.6 0-6.4 2.2-7.1 6.2z"/><path class="r" d="m5714.4 448.2l-5.9 10.1h-12l12-18.5-12.4-17.8h12.6l6.9 10 5.9-10h12.1l-12.2 18.3 12.5 18h-12.5z"/><path class="r" d="m5774.1 458.3h-11.2v-4.9c-2.2 3.1-6.1 5.3-11 5.3-8.4 0-14-5.8-14-15.5v-21.2h11v19.7c0 5 2.8 7.7 7 7.7 4.3 0 7-2.7 7-7.7v-19.7h11.2z"/><path class="r" d="m5796.9 458.9c-9.7 0-16.2-5.4-16.7-12.5h11c0.2 2.6 2.5 4.3 5.6 4.3 2.8 0 4.3-1.3 4.3-3 0-5.8-19.8-1.6-19.8-15 0-6.2 5.3-11.2 14.8-11.2 9.4 0 14.6 5.2 15.3 12.3h-10.3c-0.3-2.4-2.2-4.1-5.3-4.1-2.6 0-4 1.1-4 2.8 0 5.8 19.6 1.7 19.8 15.3 0 6.3-5.6 11.1-14.7 11.1z"/><path fill-rule="evenodd" class="s" d="m5811.1 188.4v199.4h-52.6v-24.4l-17.8 30.8-29.6-51.3-25.9 44.9h-73.9v-199.4h52.6v108.1l47.1-81.7 32.9 57.2h14.6v-83.6zm-186.9 176.9l27.7-48v-117.1h-28.7v166.9zm163.9-80h-51.8l-3.7-6.4-21.6-37.5-76.7 133h43.3l33.5-58.2 29.7 51.5zm11.1 7.5l-28.7 49.7-0.1 33.5h28.8zm0-92.6h-28.7v71.8h28.7z"/><path class="r" d="m5665.8 475.4l-6.8 23.2h-4.3l-4.9-17.6-5.2 17.6h-4.3l-6.6-23.2h4.1l4.8 18.9 5.2-18.9h4.3l4.8 18.8 4.9-18.8z"/><path class="r" d="m5672.8 478.5v6.8h8v3.1h-8v7.1h9v3.1h-12.8v-23.3h12.8v3.2z"/><path fill-rule="evenodd" class="r" d="m5702.1 488.6q1.3 1.7 1.3 3.8 0 1.7-0.9 3.1-0.9 1.5-2.7 2.3-1.7 0.8-4 0.8h-9.3v-23.2h8.9q2.3 0 4 0.8 1.7 0.8 2.6 2.1 0.9 1.4 0.9 3.1 0 2-1.1 3.3-1.1 1.3-2.9 2 1.9 0.3 3.2 1.9zm-11.8-3.5h4.7q1.9 0 3-0.8 1-0.9 1-2.5 0-1.5-1-2.4-1.1-0.9-3-0.9h-4.7zm8.2 9.4q1.1-0.9 1.1-2.6 0-1.7-1.2-2.7-1.1-1-3.1-1h-5v7.2h5.2q1.9 0 3-0.9z"/><path class="r" d="m5711 498q-1.9-0.8-2.9-2.3-1.1-1.5-1.1-3.5h4.1q0.1 1.5 1.2 2.5 1 0.9 2.9 0.9 2 0 3.1-0.9 1.1-1 1.1-2.5 0-1.1-0.7-1.9-0.7-0.7-1.7-1.1-1-0.4-2.8-0.9-2.3-0.6-3.7-1.2-1.4-0.6-2.4-1.9-1-1.3-1-3.5 0-2 1-3.5 1-1.5 2.8-2.3 1.8-0.8 4.1-0.8 3.4 0 5.6 1.7 2.1 1.7 2.4 4.6h-4.2q-0.1-1.3-1.2-2.2-1.2-0.9-3-0.9-1.6 0-2.6 0.9-1.1 0.8-1.1 2.4 0 1 0.7 1.7 0.6 0.7 1.6 1.1 1 0.4 2.8 0.9 2.3 0.6 3.7 1.2 1.5 0.7 2.5 2 1 1.3 1 3.5 0 1.8-0.9 3.4-1 1.5-2.8 2.5-1.8 0.9-4.3 0.9-2.3 0-4.2-0.8z"/><path class="r" d="m5731.6 475.4v23.2h-3.9v-23.2z"/><path class="r" d="m5751.6 475.4v3.1h-6.2v20.1h-3.8v-20.1h-6.2v-3.1z"/><path class="r" d="m5759.2 478.5v6.8h8.1v3.1h-8.1v7.1h9.1v3.1h-12.9v-23.3h12.9v3.2z"/><path class="r" d="m5776.4 498q-1.9-0.8-3-2.3-1-1.5-1-3.5h4q0.2 1.5 1.2 2.5 1.1 0.9 3 0.9 2 0 3.1-0.9 1.1-1 1.1-2.5 0-1.1-0.7-1.9-0.7-0.7-1.7-1.1-1-0.4-2.9-0.9-2.2-0.6-3.6-1.2-1.5-0.6-2.5-1.9-1-1.3-1-3.5 0-2 1-3.5 1-1.5 2.8-2.3 1.8-0.8 4.2-0.8 3.4 0 5.6 1.7 2.1 1.7 2.3 4.6h-4.2q-0.1-1.3-1.2-2.2-1.1-0.9-2.9-0.9-1.6 0-2.7 0.9-1 0.8-1 2.4 0 1 0.7 1.7 0.6 0.7 1.6 1.1 1 0.4 2.8 0.9 2.3 0.6 3.7 1.2 1.5 0.7 2.5 2 1 1.3 1 3.5 0 1.8-0.9 3.4-1 1.5-2.8 2.5-1.8 0.9-4.3 0.9-2.4 0-4.2-0.8z"/><path class="t" d="m7278.3 843.6h-1000v-1000h1000z"/><path class="h" d="m6718.7 412.6v45.7h-11.1l-18.6-28.2v28.2h-11.2v-45.7h11.2l18.6 28.3v-28.3z"/><path fill-rule="evenodd" class="h" d="m6743 458.9c-10.7 0-18.4-7.2-18.4-18.7 0-11.6 7.6-18.7 18.4-18.7 10.6 0 18.1 7 18.1 18.1 0 1-0.1 2.1-0.2 3.2h-25.2c0.4 4.8 3.3 7 6.9 7 3.1 0 4.9-1.6 5.8-3.5h11.9c-1.8 7.1-8.2 12.6-17.3 12.6zm-7.2-22.3h13.9c0-3.9-3.1-6.2-6.8-6.2-3.7 0-6.5 2.2-7.1 6.2z"/><path class="h" d="m6781.5 448.2l-5.9 10.1h-12l12-18.5-12.3-17.8h12.5l6.9 10 5.9-10h12.1l-12.2 18.3 12.5 18h-12.5z"/><path class="h" d="m6841.2 458.3h-11.1v-4.9c-2.3 3.1-6.2 5.3-11 5.3-8.5 0-14.1-5.8-14.1-15.5v-21.2h11.1v19.7c0 5 2.8 7.7 6.9 7.7 4.3 0 7.1-2.7 7.1-7.7v-19.7h11.1z"/><path class="h" d="m6864 458.9c-9.7 0-16.2-5.4-16.7-12.5h11c0.2 2.6 2.5 4.3 5.6 4.3 2.9 0 4.4-1.3 4.4-3 0-5.8-19.9-1.6-19.9-15 0-6.2 5.3-11.2 14.8-11.2 9.4 0 14.6 5.2 15.4 12.3h-10.3c-0.4-2.4-2.3-4.1-5.4-4.1-2.6 0-4 1.1-4 2.8 0 5.8 19.7 1.7 19.8 15.3 0 6.3-5.6 11.1-14.7 11.1z"/><path fill-rule="evenodd" class="h" d="m6878.2 188.4v199.4h-52.6v-24.4l-17.8 30.8-29.6-51.3-25.8 44.9h-74v-199.4h52.6v108.1l47.1-81.7 32.9 57.2h14.6v-83.6zm-186.9 176.9l27.7-48v-117.1h-28.6v166.9zm163.8-80h-51.8l-3.7-6.4-21.6-37.5-76.7 133h43.3l33.5-58.2 29.7 51.5zm11.1 7.5l-28.7 49.7-0.1 33.5h28.8zm0-92.6h-28.7v71.8h28.7z"/><path class="h" d="m6733 475.4l-6.9 23.2h-4.3l-4.9-17.6-5.2 17.6h-4.3l-6.6-23.2h4.1l4.8 18.9 5.2-18.9h4.3l4.8 18.8 4.9-18.8z"/><path class="h" d="m6739.9 478.5v6.8h8v3.1h-8v7.1h9v3.1h-12.8v-23.3h12.8v3.2z"/><path fill-rule="evenodd" class="h" d="m6769.2 488.6q1.3 1.7 1.3 3.8 0 1.7-0.9 3.1-0.9 1.5-2.6 2.3-1.8 0.8-4.1 0.8h-9.3v-23.2h8.9q2.3 0 4.1 0.8 1.7 0.8 2.5 2.1 0.9 1.4 0.9 3.1 0 2-1.1 3.3-1 1.3-2.8 2 1.8 0.3 3.1 1.9zm-11.8-3.5h4.7q1.9 0 3-0.8 1-0.9 1-2.5 0-1.5-1-2.4-1.1-0.9-3-0.9h-4.7zm8.2 9.4q1.1-0.9 1.1-2.6 0-1.7-1.1-2.7-1.2-1-3.2-1h-5v7.2h5.2q1.9 0 3-0.9z"/><path class="h" d="m6778.1 498q-1.9-0.8-2.9-2.3-1.1-1.5-1.1-3.5h4.1q0.1 1.5 1.2 2.5 1 0.9 2.9 0.9 2 0 3.1-0.9 1.1-1 1.1-2.5 0-1.1-0.7-1.9-0.7-0.7-1.7-1.1-1-0.4-2.8-0.9-2.3-0.6-3.7-1.2-1.4-0.6-2.4-1.9-1-1.3-1-3.5 0-2 1-3.5 1-1.5 2.8-2.3 1.8-0.8 4.2-0.8 3.3 0 5.5 1.7 2.1 1.7 2.4 4.6h-4.2q-0.1-1.3-1.2-2.2-1.1-0.9-2.9-0.9-1.7 0-2.7 0.9-1 0.8-1 2.4 0 1 0.6 1.7 0.7 0.7 1.7 1.1 1 0.4 2.7 0.9 2.3 0.6 3.8 1.2 1.4 0.7 2.4 2 1.1 1.3 1.1 3.5 0 1.8-1 3.4-1 1.5-2.8 2.5-1.8 0.9-4.3 0.9-2.3 0-4.2-0.8z"/><path class="h" d="m6798.7 475.4v23.2h-3.8v-23.2z"/><path class="h" d="m6818.7 475.4v3.1h-6.2v20.1h-3.8v-20.1h-6.2v-3.1z"/><path class="h" d="m6826.3 478.5v6.8h8.1v3.1h-8.1v7.1h9.1v3.1h-12.9v-23.3h12.9v3.2z"/><path class="h" d="m6843.5 498q-1.9-0.8-3-2.3-1-1.5-1-3.5h4.1q0.1 1.5 1.1 2.5 1.1 0.9 3 0.9 2 0 3.1-0.9 1.1-1 1.1-2.5 0-1.1-0.7-1.9-0.7-0.7-1.7-1.1-1-0.4-2.8-0.9-2.3-0.6-3.7-1.2-1.4-0.6-2.5-1.9-1-1.3-1-3.5 0-2 1-3.5 1.1-1.5 2.9-2.3 1.8-0.8 4.1-0.8 3.4 0 5.6 1.7 2.1 1.7 2.4 4.6h-4.3q-0.1-1.3-1.2-2.2-1.1-0.9-2.9-0.9-1.6 0-2.6 0.9-1.1 0.8-1.1 2.4 0 1 0.7 1.7 0.6 0.7 1.6 1.1 1 0.4 2.8 0.9 2.3 0.6 3.7 1.2 1.5 0.7 2.5 2 1 1.3 1 3.5 0 1.8-0.9 3.4-1 1.5-2.8 2.5-1.8 0.9-4.3 0.9-2.3 0-4.2-0.8z"/><path class="k" d="m8636.4 843.6h-1000v-1000h1000z"/><path class="r" d="m8083.9 326.7v38.9h-9.4l-15.9-24v24h-9.5v-38.9h9.5l15.9 24.1v-24.1z"/><path class="r" d="m8103.2 357l-5 8.6h-10.3l10.2-15.8-10.5-15.1h10.7l5.9 8.5 5-8.5h10.3l-10.4 15.6 10.6 15.3h-10.6z"/><path class="r" d="m8121.3 326.7h10.2l5.6 28.3 6.9-28.3h10.4l6.7 28.3 5.7-28.3h10.2l-10.2 38.9h-11.5l-6.2-25.6-6.4 25.6h-11.5z"/><path fill-rule="evenodd" class="r" d="m8195.5 366.1c-9.1 0-15.7-6.1-15.7-16 0-9.8 6.5-15.9 15.7-15.9 9 0 15.4 6 15.4 15.4q0 1.4-0.2 2.8h-21.4c0.3 4.1 2.8 6 5.8 6 2.7 0 4.2-1.4 5-3h10.1c-1.5 6-7 10.7-14.7 10.7zm-6.2-18.9h11.9c0-3.4-2.7-5.4-5.8-5.4-3.1 0-5.5 1.9-6.1 5.4z"/><path fill-rule="evenodd" class="r" d="m8234.9 334.2c7.6 0 13.6 6.1 13.6 15.9 0 9.7-6 16-13.6 16-4.6 0-7.8-2.1-9.6-4.8v4.3h-9.4v-41h9.4v14.5c1.8-2.8 5.1-4.9 9.6-4.9zm-2.8 8.3c-3.6 0-6.8 2.7-6.8 7.6 0 5 3.2 7.7 6.8 7.7 3.6 0 6.8-2.8 6.8-7.7 0-4.9-3.2-7.6-6.8-7.6z"/><path class="r" d="m8266.1 366.1c-8.3 0-13.8-4.6-14.3-10.6h9.4c0.2 2.1 2.2 3.6 4.8 3.6 2.4 0 3.7-1.1 3.7-2.5 0-5-16.9-1.4-16.9-12.8 0-5.2 4.5-9.6 12.6-9.6 8 0 12.4 4.5 13.1 10.6h-8.8c-0.3-2.1-1.9-3.5-4.5-3.5-2.3 0-3.5 0.9-3.5 2.4 0 4.9 16.8 1.4 16.9 12.9 0 5.4-4.7 9.5-12.5 9.5z"/><path class="r" d="m8283.6 326.4c0-2.9 2.2-5.2 5.6-5.2 3.3 0 5.6 2.3 5.6 5.2 0 2.8-2.3 5.1-5.6 5.1-3.4 0-5.6-2.3-5.6-5.1zm0.8 8.3h9.5v30.9h-9.5z"/><path class="r" d="m8302.3 342.6h-3.8v-7.9h3.8v-7.6h9.5v7.6h6.2v7.9h-6.2v12.4c0 1.8 0.8 2.6 2.9 2.6h3.3v8h-4.8c-6.4 0-10.9-2.7-10.9-10.7z"/><path fill-rule="evenodd" class="r" d="m8337.1 366.1c-9.1 0-15.7-6.1-15.7-16 0-9.8 6.4-15.9 15.7-15.9 9 0 15.4 6 15.4 15.4q0 1.4-0.2 2.8h-21.5c0.4 4.1 2.9 6 5.9 6 2.7 0 4.2-1.4 5-3h10c-1.5 6-6.9 10.7-14.6 10.7zm-6.2-18.9h11.9c0-3.4-2.7-5.4-5.9-5.4-3.1 0-5.4 1.9-6 5.4z"/><path class="r" d="m8370 366.1c-8.2 0-13.8-4.6-14.2-10.6h9.4c0.2 2.1 2.1 3.6 4.7 3.6 2.5 0 3.7-1.1 3.7-2.5 0-5-16.8-1.4-16.8-12.8 0-5.2 4.5-9.6 12.6-9.6 8 0 12.4 4.5 13 10.6h-8.8c-0.2-2.1-1.8-3.5-4.5-3.5-2.2 0-3.4 0.9-3.4 2.4 0 4.9 16.7 1.4 16.9 12.9 0 5.4-4.8 9.5-12.6 9.5z"/><path class="r" d="m7990.5 354.5l41.9-71h-18l-32.9 55.8 0.8 1.4z"/><path class="u" d="m7988.7 357.4l-8.9-15.2-34.7-58.7h-54.8l62.1 105 9 15.2 7.3-12.3 1.7-2.9-9-15.2-44.2-74.6h18.8l34.8 58.7 9 15.2 18.3 31.1h18l-27.3-46.3z"/><path class="r" d="m7976.8 373.4l-7.7-13-0.1-0.1-5.9 10.1 9 15.2 5.9-10.1-1.2-2.1z"/><path class="k" d="m11073.8 843.6h-1000v-1000h1000z"/><path class="r" d="m10505.6 308.3l-27.8 47.1-8.9-15-0.9-1.5 18.1-30.6z"/><path class="u" d="m10475.9 358.6l-9.8-16.5-37.6-63.7h-59.5l67.4 114 9.7 16.5 8-13.4 1.8-3.1-9.8-16.5-47.9-81.1h20.4l37.8 63.8 9.7 16.5 20 33.8h19.5l-29.7-50.3z"/><path class="r" d="m10462.9 376l-8.4-14.2-6.5 10.9 9.8 16.5 6.5-10.9-1.4-2.3z"/><path class="r" d="m10574.1 309.6v33.9l-22.2-33.9h-13.4v54.7h13.4v-33.8l22.2 33.8h13.4v-54.7z"/><path fill-rule="evenodd" class="r" d="m10637.8 345.7h-30.1c0.5 5.7 4 8.4 8.3 8.4 3.7 0 5.8-1.9 6.9-4.2h14.2c-2.1 8.4-9.8 15-20.7 15-12.7 0-21.9-8.6-21.9-22.4 0-13.7 9-22.3 21.9-22.3 12.7 0 21.7 8.4 21.7 21.6q0 1.9-0.3 3.9zm-13.3-7.4c0-4.7-3.8-7.4-8.2-7.4-4.4 0-7.7 2.6-8.5 7.4z"/><path class="r" d="m10670.8 342.7l14.6-21.9h-14.5l-7 12-8.3-12h-14.9l14.7 21.3-14.4 22.2h14.4l7.1-12.1 8.3 12.1h14.9z"/><path class="r" d="m10720.5 320.8v23.6c0 5.9-3.3 9.2-8.4 9.2-5 0-8.4-3.3-8.4-9.2v-23.6h-13.2v25.4c0 11.6 6.8 18.5 16.8 18.5 5.9 0 10.5-2.6 13.2-6.4v6h13.3v-43.5z"/><path class="r" d="m10754.9 333.4c0-2.1 1.7-3.3 4.8-3.3 3.8 0 6 1.9 6.4 4.9h12.3c-0.8-8.6-7.1-14.8-18.3-14.8-11.3 0-17.6 6.1-17.6 13.5 0 15.9 23.6 10.9 23.6 17.9 0 1.9-1.8 3.5-5.2 3.5-3.7 0-6.4-2-6.7-5.1h-13.2c0.7 8.4 8.5 14.9 20.1 14.9 10.9 0 17.6-5.7 17.6-13.3-0.3-16.1-23.8-11.2-23.8-18.2z"/><path class="r" d="m10571.2 381.6l-5.6 21.9-5.7-21.9h-5l-6 22-5.6-22h-4.8l7.7 27.1 5-0.1 6-20.5 5.7 20.5h5l8.1-27z"/><path class="r" d="m10594.6 385.1v-3.6h-15v27.1h15v-3.6h-10.5v-8.3h9.3v-3.6h-9.3v-8z"/><path fill-rule="evenodd" class="r" d="m10619.7 401.3q0 2.1-1 3.8-1.1 1.6-3.1 2.6-2.1 0.9-4.7 0.9h-10.9v-27h10.4q2.7 0 4.7 0.9 2 0.9 3 2.5 1 1.6 1 3.5 0 2.4-1.2 3.9-1.3 1.6-3.4 2.3 2.2 0.4 3.7 2.3 1.5 1.9 1.5 4.3zm-15.2-8.4h5.5q2.1 0 3.4-1 1.2-1 1.2-2.8 0-1.9-1.2-2.9-1.3-1-3.4-1h-5.5zm10.8 7.9q0-2-1.4-3.1-1.3-1.2-3.6-1.2h-5.8v8.4h6q2.2 0 3.5-1.1 1.3-1 1.3-3z"/><path class="r" d="m10641.6 396.8q-1.1-1.5-2.8-2.2-1.7-0.8-4.4-1.5-2-0.6-3.2-1-1.2-0.5-1.9-1.3-0.8-0.8-0.8-2 0-1.9 1.2-2.8 1.2-1 3.1-1 2.1 0 3.4 1 1.3 1.1 1.4 2.6h4.9q-0.2-3.5-2.8-5.4-2.5-2-6.4-2-2.8 0-4.9 0.9-2.1 1-3.3 2.7-1.1 1.8-1.1 4.1 0 2.5 1.1 4.1 1.2 1.5 2.9 2.2 1.6 0.7 4.3 1.4 2.1 0.6 3.3 1 1.2 0.5 2 1.4 0.8 0.8 0.8 2.2-0.1 1.7-1.3 2.8-1.3 1.2-3.6 1.2-2.2 0-3.5-1.2-1.2-1.1-1.3-2.9h-4.8q0 2.4 1.2 4.1 1.3 1.8 3.5 2.7 2.2 1 4.9 1 2.9 0 5-1.1 2.1-1.1 3.2-3 1.1-1.8 1.1-3.8 0-2.6-1.2-4.2z"/><path class="r" d="m10648.1 381.6v27h4.4v-27z"/><path class="r" d="m10657 381.6v3.6h7.2v23.4h4.5v-23.4h7.2v-3.6z"/><path class="r" d="m10695.3 385.1v-3.6h-15v27.1h15v-3.6h-10.5v-8.3h9.3v-3.6h-9.3v-8z"/><path class="r" d="m10717.8 396.8q-1.2-1.5-2.9-2.2-1.7-0.8-4.3-1.5-2.1-0.6-3.2-1-1.2-0.5-2-1.3-0.7-0.8-0.7-2 0-1.9 1.2-2.8 1.2-1 3.1-1 2.1 0 3.4 1 1.3 1.1 1.4 2.6h4.9q-0.3-3.5-2.8-5.4-2.5-2-6.4-2-2.8 0-4.9 0.9-2.1 1-3.3 2.7-1.1 1.8-1.1 4.1 0 2.5 1.1 4.1 1.2 1.5 2.8 2.2 1.7 0.7 4.4 1.4 2.1 0.6 3.2 1 1.2 0.5 2 1.4 0.8 0.8 0.8 2.2 0 1.7-1.3 2.8-1.2 1.2-3.5 1.2-2.3 0-3.5-1.2-1.2-1.1-1.4-2.9h-4.7q0 2.4 1.2 4.1 1.3 1.8 3.5 2.7 2.1 1 4.9 1 2.8 0 5-1.1 2.1-1.1 3.2-3 1.1-1.8 1.1-3.8 0-2.6-1.2-4.2z"/><path class="r" d="m12140.9 843.6h-1000v-1000h1000z"/><path class="h" d="m11572.7 308.3l-27.8 47.1-8.9-15-0.9-1.5 18.1-30.6z"/><path class="h" d="m11543 358.6l-9.8-16.5-37.6-63.7h-59.5l67.4 114 9.8 16.5 7.9-13.4 1.8-3.1-9.7-16.5-48-81.1h20.5l37.7 63.8 9.7 16.5 20 33.8h19.5l-29.7-50.3z"/><path class="h" d="m11530 376l-8.4-14.2-6.5 10.9 9.8 16.5 6.5-10.9-1.4-2.3z"/><path class="h" d="m11641.2 309.6v33.9l-22.2-33.9h-13.3v54.7h13.3v-33.8l22.2 33.8h13.4v-54.7z"/><path fill-rule="evenodd" class="h" d="m11705 345.7h-30.2c0.5 5.7 4 8.4 8.3 8.4 3.7 0 5.8-1.9 6.9-4.2h14.2c-2.1 8.4-9.8 15-20.7 15-12.7 0-21.9-8.6-21.9-22.4 0-13.7 9-22.3 21.9-22.3 12.7 0 21.7 8.4 21.7 21.6q0 1.9-0.2 3.9zm-13.4-7.4c0-4.7-3.8-7.4-8.2-7.4-4.4 0-7.7 2.6-8.5 7.4z"/><path class="h" d="m11737.9 342.7l14.6-21.9h-14.4l-7 12-8.4-12h-14.9l14.7 21.3-14.3 22.2h14.4l7-12.1 8.3 12.1h15z"/><path class="h" d="m11787.6 320.8v23.6c0 5.9-3.3 9.2-8.4 9.2-5 0-8.3-3.3-8.3-9.2v-23.6h-13.3v25.4c0 11.6 6.8 18.5 16.8 18.5 5.9 0 10.5-2.6 13.2-6.4v6h13.3v-43.5z"/><path class="h" d="m11822 333.4c0-2.1 1.7-3.3 4.9-3.3 3.7 0 6 1.9 6.3 4.9h12.3c-0.8-8.6-7-14.8-18.3-14.8-11.3 0-17.6 6.1-17.6 13.5 0 15.9 23.6 10.9 23.6 17.9 0 1.9-1.8 3.5-5.2 3.5-3.6 0-6.4-2-6.7-5.1h-13.1c0.6 8.4 8.4 14.9 20 14.9 10.9 0 17.6-5.7 17.6-13.3-0.3-16.1-23.8-11.2-23.8-18.2z"/><path class="h" d="m11638.3 381.6l-5.6 21.9-5.7-21.9h-4.9l-6.1 22-5.6-22h-4.7l7.6 27.1 5-0.1 6.1-20.5 5.6 20.5h5.1l8-27z"/><path class="h" d="m11661.7 385.1v-3.6h-15v27.1h15v-3.6h-10.5v-8.3h9.3v-3.6h-9.3v-8z"/><path fill-rule="evenodd" class="h" d="m11686.8 401.3q0.1 2.1-1 3.8-1.1 1.6-3.1 2.6-2 0.9-4.7 0.9h-10.9v-27h10.4q2.7 0 4.7 0.9 2 0.9 3 2.5 1 1.6 1 3.5 0 2.4-1.2 3.9-1.3 1.6-3.4 2.3 2.2 0.4 3.7 2.3 1.6 1.9 1.5 4.3zm-15.2-8.4h5.5q2.2 0 3.4-1 1.2-1 1.2-2.8 0-1.9-1.2-2.9-1.2-1-3.4-1h-5.5zm10.8 7.9q0-2-1.4-3.1-1.3-1.2-3.6-1.2h-5.8v8.4h6q2.2 0 3.5-1.1 1.3-1 1.3-3z"/><path class="h" d="m11708.8 396.8q-1.2-1.5-2.9-2.2-1.7-0.8-4.4-1.5-2-0.6-3.2-1-1.2-0.5-1.9-1.3-0.8-0.8-0.8-2 0-1.9 1.2-2.8 1.2-1 3.1-1 2.1 0 3.4 1 1.3 1.1 1.4 2.6h4.9q-0.2-3.5-2.8-5.4-2.5-2-6.4-2-2.8 0-4.9 0.9-2.1 1-3.2 2.7-1.2 1.8-1.2 4.1 0 2.5 1.2 4.1 1.1 1.5 2.8 2.2 1.6 0.7 4.3 1.4 2.1 0.6 3.3 1 1.2 0.5 2 1.4 0.8 0.8 0.8 2.2 0 1.7-1.3 2.8-1.3 1.2-3.6 1.2-2.2 0-3.5-1.2-1.2-1.1-1.3-2.9h-4.8q0 2.4 1.3 4.1 1.2 1.8 3.4 2.7 2.2 1 4.9 1 2.9 0 5-1.1 2.1-1.1 3.2-3 1.1-1.8 1.1-3.8 0-2.6-1.1-4.2z"/><path class="h" d="m11715.2 381.6v27h4.4v-27z"/><path class="h" d="m11724.1 381.6v3.6h7.2v23.4h4.5v-23.4h7.2v-3.6z"/><path class="h" d="m11762.4 385.1v-3.6h-15v27.1h15v-3.6h-10.5v-8.3h9.3v-3.6h-9.3v-8z"/><path class="h" d="m11784.9 396.8q-1.2-1.5-2.8-2.2-1.8-0.8-4.4-1.5-2.1-0.6-3.2-1-1.2-0.5-1.9-1.3-0.8-0.8-0.8-2 0-1.9 1.2-2.8 1.2-1 3.1-1 2.1 0 3.4 1 1.3 1.1 1.4 2.6h4.9q-0.3-3.5-2.8-5.4-2.5-2-6.4-2-2.8 0-4.9 0.9-2.1 1-3.3 2.7-1.1 1.8-1.1 4.1 0 2.5 1.1 4.1 1.2 1.5 2.9 2.2 1.6 0.7 4.3 1.4 2.1 0.6 3.3 1 1.1 0.5 1.9 1.4 0.8 0.8 0.8 2.2 0 1.7-1.2 2.8-1.3 1.2-3.6 1.2-2.2 0-3.5-1.2-1.2-1.1-1.4-2.9h-4.7q0 2.4 1.2 4.1 1.3 1.8 3.5 2.7 2.2 1 4.9 1 2.9 0 5-1.1 2.1-1.1 3.2-3 1.1-1.8 1.1-3.8 0-2.6-1.2-4.2z"/><path class="r" d="m9703.5 843.6h-1000v-1000h1000z"/><path class="h" d="m9151 326.7v38.9h-9.4l-15.9-24v24h-9.5v-38.9h9.5l15.9 24.1v-24.1z"/><path class="h" d="m9170.3 357l-5 8.6h-10.3l10.2-15.8-10.4-15.1h10.6l5.9 8.5 5-8.5h10.3l-10.4 15.6 10.7 15.3h-10.7z"/><path class="h" d="m9188.5 326.7h10.1l5.6 28.3 6.9-28.3h10.5l6.6 28.3 5.7-28.3h10.2l-10.2 38.9h-11.4l-6.3-25.6-6.4 25.6h-11.5z"/><path fill-rule="evenodd" class="h" d="m9262.6 366.1c-9.1 0-15.7-6.1-15.7-16 0-9.8 6.5-15.9 15.7-15.9 9 0 15.4 6 15.4 15.4q0 1.4-0.2 2.8h-21.4c0.3 4.1 2.8 6 5.9 6 2.6 0 4.1-1.4 4.9-3h10.1c-1.5 6-7 10.7-14.7 10.7zm-6.2-18.9h11.9c0-3.4-2.7-5.4-5.8-5.4-3.1 0-5.5 1.9-6.1 5.4z"/><path fill-rule="evenodd" class="h" d="m9302 334.2c7.7 0 13.6 6.1 13.6 15.9 0 9.7-6 16-13.6 16-4.5 0-7.8-2.1-9.5-4.8v4.3h-9.5v-41h9.5v14.5c1.7-2.8 5.1-4.9 9.5-4.9zm-2.8 8.3c-3.6 0-6.8 2.7-6.8 7.6 0 5 3.2 7.7 6.8 7.7 3.6 0 6.8-2.8 6.8-7.7 0-4.9-3.2-7.6-6.8-7.6z"/><path class="h" d="m9333.2 366.1c-8.3 0-13.8-4.6-14.2-10.6h9.3c0.3 2.1 2.2 3.6 4.8 3.6 2.4 0 3.7-1.1 3.7-2.5 0-5-16.8-1.4-16.8-12.8 0-5.2 4.4-9.6 12.5-9.6 8 0 12.5 4.5 13.1 10.6h-8.8c-0.3-2.1-1.9-3.5-4.5-3.5-2.3 0-3.5 0.9-3.5 2.4 0 4.9 16.8 1.4 16.9 12.9 0 5.4-4.7 9.5-12.5 9.5z"/><path class="h" d="m9350.7 326.4c0-2.9 2.2-5.2 5.6-5.2 3.4 0 5.6 2.3 5.6 5.2 0 2.8-2.2 5.1-5.6 5.1-3.4 0-5.6-2.3-5.6-5.1zm0.9 8.3h9.4v30.9h-9.4z"/><path class="h" d="m9369.4 342.6h-3.8v-7.9h3.8v-7.6h9.5v7.6h6.2v7.9h-6.2v12.4c0 1.8 0.8 2.6 2.9 2.6h3.4v8h-4.9c-6.4 0-10.9-2.7-10.9-10.7z"/><path fill-rule="evenodd" class="h" d="m9404.2 366.1c-9.1 0-15.7-6.1-15.7-16 0-9.8 6.5-15.9 15.7-15.9 9 0 15.4 6 15.4 15.4q0 1.4-0.2 2.8h-21.4c0.3 4.1 2.8 6 5.8 6 2.7 0 4.2-1.4 5-3h10.1c-1.5 6-7 10.7-14.7 10.7zm-6.2-18.9h11.9c0-3.4-2.7-5.4-5.8-5.4-3.1 0-5.5 1.9-6.1 5.4z"/><path class="h" d="m9437.2 366.1c-8.3 0-13.9-4.6-14.3-10.6h9.4c0.2 2.1 2.1 3.6 4.7 3.6 2.5 0 3.8-1.1 3.8-2.5 0-5-16.9-1.4-16.9-12.8 0-5.2 4.5-9.6 12.6-9.6 8 0 12.4 4.5 13 10.6h-8.7c-0.3-2.1-1.9-3.5-4.6-3.5-2.2 0-3.4 0.9-3.4 2.4 0 4.9 16.7 1.4 16.9 12.9 0 5.4-4.8 9.5-12.5 9.5z"/><path class="h" d="m9057.6 354.5l41.9-71h-17.9l-33 55.8 0.8 1.4z"/><path class="h" d="m9055.9 357.4l-9-15.2-34.7-58.7h-54.8l62.1 105 9 15.2 7.3-12.3 1.7-2.9-9-15.2-44.2-74.6h18.8l34.8 58.7 9 15.2 18.4 31.1h18l-27.4-46.3z"/><path class="h" d="m9043.9 373.4l-7.7-13v-0.1l-6 10.1 9 15.2 6-10.1-1.3-2.1z"/><path class="k" d="m-1101 1935h-1000v-1000h1000z"/><path class="v" d="m-1679.3 1442.2c6.6-12.6 8.2-27.2 4.5-40.9l-11.2-41.5c-3.7-13.5-15.9-22.8-29.9-22.8h-37l45.8 158.3z"/><path class="w" d="m-1449.1 1522.5l-33.9-64.5-10.3-19.5c-4.3-8.6-9.7-18.9-17.2-32.7l-5.8-11.1-20.6-39c-10.3-19.3-20.5-22-35.2-22-14.3 0-24.3 2.7-34.6 22l-22.2 41.5-4.1 7.8c-6.3 11.8-11.3 21.4-15.5 29.6l-0.1 0.2-12.2 23.3-34.7 66.1c6.7 8.1 16.2 12.1 26.4 12.1 15.8 0 26.4-8.2 33.4-20.8l31.4-55.7c17-30.2 24.9-44.6 31.1-58.7 6.7 14.1 14.6 28.8 31.6 59l31.4 55.4c7.3 12.9 17.8 20.8 33.4 20.8 10.9 0 21-4.6 27.7-13.8z"/><path class="c" d="m-33.9 1935h-1000v-1000h1000z"/><path class="x" d="m-612.2 1442.2c6.6-12.6 8.2-27.2 4.5-40.9l-11.2-41.5c-3.7-13.5-15.9-22.8-29.9-22.8h-37l45.8 158.3z"/><path class="y" d="m-382 1522.5l-33.9-64.5-10.3-19.5c-4.3-8.6-9.7-18.9-17.2-32.7l-5.8-11.1-20.6-39c-10.3-19.3-20.5-22-35.2-22-14.3 0-24.3 2.7-34.6 22l-22.1 41.5-4.2 7.8c-6.3 11.8-11.3 21.4-15.5 29.6l-0.1 0.2-12.2 23.3-34.7 66.1c6.7 8.1 16.2 12.1 26.4 12.1 15.9 0 26.4-8.2 33.4-20.8l31.4-55.7c17-30.2 24.9-44.6 31.1-58.7 6.7 14.1 14.6 28.8 31.6 59l31.4 55.4c7.3 12.9 17.9 20.8 33.4 20.8 10.9 0 21-4.6 27.7-13.8z"/><path class="k" d="m1336.4 1935h-1000v-1000h1000z"/><path class="z" d="m961 1350.6c-12.1 0-22.6 8.1-25.7 19.7l-9.7 35.7c-3.2 11.8-1.8 24.4 3.9 35.2l23.9 45.7 39.4-136.3z"/><path class="A" d="m903.4 1438c-3.7-7.4-8.3-16.2-14.8-28.2l-5-9.5-17.7-33.6c-8.8-16.6-17.7-18.9-30.3-18.9-12.3 0-20.9 2.3-29.8 18.9l-19.1 35.7-3.6 6.7c-5.4 10.2-9.7 18.5-13.3 25.6l-0.1 0.2-9.7 18.5-27.8-102.8h-52.3l46.8 152.6c3.4 11 13.5 18.9 25.1 19q0.2 0 0.3 0c13.6 0 22.7-7.1 28.8-17.9l27-48c14.6-26 21.4-38.3 26.7-50.4 5.8 12.1 12.6 24.7 27.3 50.7l27 47.7c6.3 11.1 15.4 17.9 28.7 17.9 9.5 0 18.1-3.9 23.9-11.9l-29.2-55.5z"/><path class="c" d="m2403.5 1935h-1000v-1000h1000z"/><path class="B" d="m2028.1 1350.6c-12 0-22.6 8.1-25.7 19.7l-9.7 35.7c-3.2 11.8-1.8 24.4 3.9 35.2l23.9 45.7 39.5-136.3z"/><path class="C" d="m1970.6 1438c-3.8-7.4-8.4-16.2-14.9-28.2l-5-9.5-17.7-33.6c-8.8-16.6-17.7-18.9-30.3-18.9-12.3 0-20.9 2.3-29.7 18.9l-19.2 35.7-3.6 6.7c-5.4 10.2-9.6 18.5-13.3 25.6l-0.1 0.2-9.7 18.5-27.8-102.8h-52.2l46.8 152.6c3.4 11 13.5 18.9 25 19q0.2 0 0.3 0c13.6 0 22.7-7.1 28.8-17.9l27-48c14.6-26 21.4-38.3 26.7-50.4 5.8 12.1 12.7 24.7 27.3 50.7l27 47.7c6.3 11.1 15.4 17.9 28.7 17.9 9.5 0 18.1-3.9 23.9-11.9l-29.2-55.5z"/><path class="k" d="m3773.8 1935h-1000v-1000h1000z"/><path class="D" d="m3396.8 1431.6q0-1.4-0.1-2.7-0.1-2.1-0.3-4.2c-3.9-43.8-32.7-80.7-72.6-97.8v0.1c39.8 19.6 67.2 60.6 67.2 108 0 47.4-27.4 88.4-67.2 108.1 41.2-17.6 70.5-56.4 72.9-102q0.1-1.3 0.1-2.6 0.1-1.8 0.1-3.5 0-1.7-0.1-3.4z"/><path class="E" d="m3370.2 1495.8q1.2-2.1 2.4-4.2 0.6-1.2 1.2-2.3 0.6-1.2 1.2-2.3 0.5-1.1 1-2.3 0.2-0.2 0.3-0.5 0.5-1.1 1-2.3 1.1-2.7 2.2-5.5 0.5-1.4 1-2.9 0 0 0 0 1.1-3.1 2-6.3 0.5-1.6 0.9-3.3 0 0 0-0.1 0.4-1.4 0.7-2.9 0.3-1.5 0.6-3 0-0.1 0-0.1 0.4-2 0.8-4 0-0.1 0-0.2 0.6-4 1-8.1 0.1-1.2 0.2-2.4 0-1 0.1-2 0-0.9 0.1-1.8 0-0.7 0-1.3 0-1.5 0-3 0-0.7 0-1.4 0-0.8 0-1.5 0-0.7 0-1.3-0.1-1-0.1-1.9-0.1-0.7-0.1-1.5-0.1-0.7-0.1-1.4-0.1-1.1-0.2-2.2-0.1-1.1-0.2-2.3-0.2-1.4-0.4-2.9-0.2-1.7-0.5-3.4-0.2-1.1-0.4-2.3-0.2-1.1-0.5-2.1-0.2-1.3-0.5-2.6-0.4-1.6-0.8-3.2 0-0.3-0.1-0.5-0.3-0.9-0.5-1.7-0.3-0.9-0.5-1.9-0.3-0.8-0.6-1.7-0.2-0.7-0.4-1.4-0.2-0.7-0.5-1.3-0.2-0.8-0.5-1.6-0.3-0.7-0.6-1.5-1-2.8-2.2-5.5-1.6-3.6-3.4-7.1-1.1-2.2-2.3-4.4 0 0-0.1 0-0.7-1.2-1.4-2.4-0.5-0.8-1-1.6-0.2-0.4-0.5-0.8-0.5-0.8-1.1-1.7-0.5-0.7-1-1.5-1.2-1.8-2.5-3.5-0.8-1.1-1.6-2.1-0.1-0.2-0.3-0.4-0.1-0.1-0.2-0.3-0.4-0.5-0.8-1-0.2-0.2-0.4-0.5-0.7-0.8-1.4-1.6v-0.1q-0.9-1.1-1.9-2.1-0.4-0.5-0.8-0.9-0.4-0.5-0.8-0.9-0.6-0.7-1.3-1.4 0 0-0.1-0.1-0.3-0.3-0.6-0.6-0.7-0.8-1.4-1.5-0.1-0.1-0.3-0.3-0.8-0.8-1.7-1.6-0.3-0.3-0.6-0.5-0.7-0.8-1.6-1.5-2.4-2.3-5-4.3-1.2-1-2.4-1.9-1.1-0.9-2.1-1.6-1.1-0.8-2.1-1.5-1.3-0.9-2.5-1.7-3.6-2.4-7.5-4.6-1.1-0.7-2.4-1.3-0.4-0.3-0.9-0.5-0.9-0.5-1.8-0.9-0.9-0.5-1.8-0.9-1.4-0.7-2.8-1.3c-14.6-6.5-30.7-10.1-47.7-10.1q-0.2-0.1-0.3 0-6.4 0.2-12.7 1.1v24.1q6.1-0.8 12.5-0.8 6.3 0 12.5 0.8c6.1 0.8 12 2.2 17.7 4.1 9 3.1 17.4 7.5 24.9 13 7.9 5.7 14.8 12.6 20.5 20.4q1 1.4 2 2.9 1 1.4 1.9 2.9 0.8 1.3 1.6 2.6 0.8 1.3 1.5 2.6 0 0.1 0 0.2 0.5 0.9 1 1.8 0.8 1.6 1.6 3.2 0.2 0.5 0.4 1.1 1 2 1.8 4.1 0.2 0.5 0.4 1.1 0.8 2.1 1.5 4.3 0.2 0.8 0.5 1.6 0 0 0 0 0.2 0.7 0.4 1.4 0.1 0.4 0.2 0.8 0.2 0.6 0.3 1.2 0.1 0.2 0.1 0.5 0.2 0.5 0.3 1.1 0.1 0.1 0.1 0.3 0.2 0.9 0.4 1.8 0.3 1.2 0.5 2.3 0.1 0.6 0.2 1.2 0.2 1 0.3 2.1 0.2 0.7 0.3 1.5 0 0.1 0 0.1 0 0.4 0.1 0.7 0 0.1 0 0.2 0 0.3 0.1 0.5 0.1 1.4 0.2 2.6 0.1 1.1 0.2 2.2 0 0.5 0.1 0.9 0.1 1.4 0.1 2.7 0 0.1 0 0.2 0 0.7 0 1.3 0 0.7 0 1.4 0 0 0 0 0 1.4 0 2.7 0 0.1 0 0.2 0 1-0.1 2.1 0 0.6-0.1 1.2 0 1-0.1 2-0.3 3.3-0.8 6.6-0.2 1-0.4 1.9-0.1 0.7-0.2 1.4 0 0-0.1 0.1 0 0.5-0.1 1-0.1 0.1-0.1 0.2-0.1 0.7-0.3 1.4 0 0.1 0 0.1 0 0 0 0-0.2 0.7-0.3 1.3 0 0.1-0.1 0.2 0 0.3-0.1 0.7-0.2 0.7-0.4 1.4-0.8 3.1-1.9 6.1 0 0 0 0.1c-6.3 18.2-18.1 33.9-33.5 45.1v-0.1-130.4c-7.3-6.3-15.7-11.4-24.9-14.9v158.2c-5.7 1.9-11.6 3.3-17.7 4.1v-167c-4.1-0.6-8.3-0.9-12.5-0.9q-6.4 0-12.5 0.9v191.8q5.8 0.6 11.8 0.6h0.7q0 0 0 0h0.2q6.2 0 12.3-0.6c6-0.6 11.9-1.7 17.7-3.2q9.3-2.5 18-6.3c22.2-9.9 40.9-26.5 53.4-47.2z"/><path class="F" d="m3213.8 1330.5l0.1 129.4-0.1-0.4-38.5-95.5-0.3-0.8q-0.3 0.4-0.7 0.9c-13.9 18.5-22.5 41.2-23.5 65.9q-0.1 2.5-0.1 5 0 1.8 0 3.7 0.1 1.4 0.2 2.8 0.1 1.4 0.2 2.8 0.1 1.4 0.2 2.7 0.1 1.2 0.3 2.4 0.1 1.3 0.3 2.5c4.4 30.3 20.2 56.9 43 75.2q0.9 0.8 1.8 1.5v-34c-13.4-16.2-21.4-37-21.4-59.6q0-9.2 1.7-17.9l36.8 93.5v29c6.8 3.6 14 6.5 21.5 8.7q1.8 0.5 3.6 1v-228.6q-1.8 0.4-3.6 1c-7.5 2.2-14.7 5.1-21.5 8.8z"/><path class="c" d="m4840.9 1935h-1000v-1000h1000z"/><path class="G" d="m4464 1431.6q-0.1-1.4-0.2-2.7-0.1-2.1-0.3-4.2c-3.9-43.8-32.7-80.7-72.6-97.8v0.1c39.8 19.6 67.2 60.6 67.2 108 0 47.4-27.4 88.4-67.2 108.1 41.2-17.6 70.5-56.4 72.9-102q0.1-1.3 0.2-2.6 0-1.8 0-3.5 0-1.7 0-3.4z"/><path class="H" d="m4437.3 1495.8q1.2-2.1 2.4-4.2 0.6-1.2 1.2-2.3 0.6-1.2 1.2-2.3 0.5-1.1 1-2.3 0.2-0.2 0.3-0.5 0.5-1.1 1-2.3 1.2-2.7 2.2-5.5 0.5-1.4 1-2.9 0.1 0 0.1 0 1-3.1 1.9-6.3 0.5-1.6 0.9-3.3 0 0 0-0.1 0.4-1.4 0.7-2.9 0.4-1.5 0.7-3 0-0.1 0-0.1 0.3-2 0.7-4 0-0.1 0-0.2 0.6-4 1-8.1 0.1-1.2 0.2-2.4 0.1-1 0.1-2 0-0.9 0.1-1.8 0-0.7 0-1.3 0.1-1.5 0.1-3 0-0.7-0.1-1.4 0.1-0.8 0-1.5 0-0.7 0-1.3-0.1-1-0.1-1.9 0-0.7-0.1-1.5 0-0.7-0.1-1.4-0.1-1.1-0.2-2.2-0.1-1.1-0.2-2.3-0.2-1.4-0.4-2.9-0.2-1.7-0.5-3.4-0.2-1.1-0.4-2.3-0.2-1.1-0.4-2.1-0.3-1.3-0.6-2.6-0.4-1.6-0.8-3.2 0-0.3-0.1-0.5-0.2-0.9-0.5-1.7-0.2-0.9-0.5-1.9-0.3-0.8-0.5-1.7-0.3-0.7-0.5-1.4-0.2-0.7-0.5-1.3-0.2-0.8-0.5-1.6-0.3-0.7-0.6-1.5-1-2.8-2.2-5.5-1.6-3.6-3.4-7.1-1.1-2.2-2.3-4.4 0 0-0.1 0-0.7-1.2-1.4-2.4-0.5-0.8-1-1.6-0.2-0.4-0.5-0.8-0.5-0.8-1.1-1.7-0.5-0.7-0.9-1.5-1.3-1.8-2.6-3.5-0.8-1.1-1.6-2.1-0.1-0.2-0.3-0.4-0.1-0.1-0.2-0.3-0.4-0.5-0.8-1-0.2-0.2-0.4-0.5-0.7-0.8-1.4-1.6v-0.1q-0.9-1.1-1.9-2.1-0.4-0.5-0.8-0.9-0.4-0.5-0.8-0.9-0.6-0.7-1.3-1.4 0 0 0-0.1-0.4-0.3-0.7-0.6-0.7-0.8-1.4-1.5-0.1-0.1-0.3-0.3-0.8-0.8-1.7-1.6-0.3-0.3-0.5-0.5-0.8-0.8-1.6-1.5-2.5-2.3-5.1-4.3-1.2-1-2.4-1.9-1.1-0.9-2.1-1.6-1.1-0.8-2.1-1.5-1.2-0.9-2.5-1.7-3.6-2.4-7.4-4.6-1.2-0.7-2.4-1.3-0.5-0.3-1-0.5-0.9-0.5-1.8-0.9-0.9-0.5-1.8-0.9-1.4-0.7-2.8-1.3c-14.6-6.5-30.7-10.1-47.7-10.1q-0.1-0.1-0.3 0-6.4 0.2-12.7 1.1v24.1q6.1-0.8 12.5-0.8 6.3 0 12.5 0.8c6.1 0.8 12 2.2 17.7 4.1 9 3.1 17.4 7.5 25 13 7.8 5.7 14.7 12.6 20.4 20.4q1 1.4 2 2.9 1 1.4 1.9 2.9 0.9 1.3 1.6 2.6 0.8 1.3 1.5 2.6 0 0.1 0.1 0.2 0.5 0.9 0.9 1.8 0.9 1.6 1.6 3.2 0.2 0.5 0.4 1.1 1 2 1.8 4.1 0.2 0.5 0.4 1.1 0.8 2.1 1.5 4.3 0.3 0.8 0.5 1.6 0 0 0 0 0.2 0.7 0.4 1.4 0.1 0.4 0.2 0.8 0.2 0.6 0.3 1.2 0.1 0.2 0.2 0.5 0.1 0.5 0.3 1.1 0 0.1 0 0.3 0.2 0.9 0.4 1.8 0.3 1.2 0.5 2.3 0.1 0.6 0.2 1.2 0.2 1 0.4 2.1 0.1 0.7 0.2 1.5 0 0.1 0 0.1 0.1 0.4 0.1 0.7 0 0.1 0 0.2 0.1 0.3 0.1 0.5 0.1 1.4 0.3 2.6 0.1 1.1 0.1 2.2 0.1 0.5 0.1 0.9 0.1 1.4 0.1 2.7 0 0.1 0 0.2 0 0.7 0 1.3 0.1 0.7 0.1 1.4 0 0 0 0-0.1 1.4-0.1 2.7 0 0.1 0 0.2 0 1-0.1 2.1 0 0.6-0.1 1.2 0 1-0.1 2-0.3 3.3-0.8 6.6-0.2 1-0.3 1.9-0.2 0.7-0.3 1.4 0 0 0 0.1-0.1 0.5-0.2 1-0.1 0.1-0.1 0.2-0.1 0.7-0.3 1.4 0 0.1 0 0.1 0 0 0 0-0.1 0.7-0.3 1.3 0 0.1 0 0.2-0.1 0.3-0.2 0.7-0.2 0.7-0.4 1.4-0.8 3.1-1.9 6.1 0 0 0 0.1c-6.3 18.2-18.1 33.9-33.4 45.1v-0.1-130.4c-7.4-6.3-15.8-11.4-25-14.9v158.2c-5.7 1.9-11.6 3.3-17.7 4.1v-167c-4.1-0.6-8.3-0.9-12.5-0.9q-6.4 0-12.5 0.9v191.8q5.8 0.6 11.8 0.6h0.7q0 0 0 0h0.2q6.2 0 12.3-0.6c6-0.6 12-1.7 17.7-3.2q9.3-2.5 18-6.3c22.2-9.9 40.9-26.5 53.4-47.2z"/><path class="I" d="m4280.9 1330.5l0.1 129.4-0.1-0.4-38.5-95.5-0.3-0.8q-0.3 0.4-0.6 0.9c-14 18.5-22.6 41.2-23.6 65.9q-0.1 2.5-0.1 5 0 1.8 0 3.7 0.1 1.4 0.2 2.8 0.1 1.4 0.2 2.8 0.1 1.4 0.2 2.7 0.1 1.2 0.3 2.4 0.2 1.3 0.3 2.5c4.4 30.3 20.2 56.9 43 75.2q0.9 0.8 1.8 1.5v-34c-13.4-16.2-21.4-37-21.4-59.6q0-9.2 1.7-17.9l36.8 93.5v29c6.8 3.6 14 6.5 21.6 8.7q1.7 0.5 3.5 1v-228.6q-1.8 0.4-3.5 1c-7.6 2.2-14.8 5.1-21.6 8.8z"/><path class="k" d="m6211.2 1935h-1000v-1000h1000z"/><path fill-rule="evenodd" class="J" d="m5825.9 1316.9v228.9h-60.4v-28.1l-20.5 35.4-33.9-58.9-29.7 51.6h-84.9v-228.9h60.4v124.1l54-93.9 37.9 65.7h16.7v-95.9zm-214.6 203.1l31.8-55.2v-134.4h-32.9v191.5zm188.1-91.8h-59.5l-4.2-7.3-24.8-43.1-88 152.8h49.6l38.6-66.9 34.1 59.2zm12.6 8.5l-32.9 57.2-0.1 38.4h33zm0-106.3h-32.9v82.4h32.9z"/><path class="K" d="m7278.3 1935h-1000v-1000h1000z"/><path fill-rule="evenodd" class="h" d="m6893 1316.9v228.9h-60.4v-28.1l-20.4 35.4-34-58.9-29.7 51.6h-84.9v-228.9h60.4v124.1l54.1-93.9 37.8 65.7h16.7v-95.9zm-214.5 203.1l31.7-55.2v-134.4h-32.9v191.5zm188.1-91.8h-59.4l-4.3-7.3-24.8-43.1-88 152.8h49.7l38.5-66.9 34.1 59.2zm12.7 8.5l-32.9 57.2-0.2 38.4h33.1zm0-106.3h-32.9v82.4h32.9z"/><path class="k" d="m8636.4 1935h-1000v-1000h1000z"/><path class="r" d="m8189.2 1454.7l76-128.6h-32.6l-59.7 101 1.5 2.6z"/><path class="u" d="m8186.1 1460l-16.3-27.6-62.9-106.3h-99.3l112.5 190.3 16.3 27.5 13.3-22.4 3-5.1-16.3-27.6-79.9-135.3h34l63 106.5 16.3 27.5v0.1l33.3 56.3h32.6l-49.6-83.9z"/><path class="r" d="m8164.4 1489l-14-23.6v-0.2l-10.8 18.3 16.3 27.6 10.8-18.3-2.3-3.8z"/><path class="r" d="m9703.5 1935h-1000v-1000h1000z"/><path class="h" d="m9256.3 1454.7l76.1-128.6h-32.7l-59.7 101 1.5 2.6z"/><path class="h" d="m9253.2 1460l-16.3-27.6-62.9-106.3h-99.3l112.6 190.3 16.2 27.5 13.3-22.4 3-5.1-16.3-27.6-79.9-135.3h34l63 106.5 16.3 27.5v0.1l33.3 56.3h32.6l-49.6-83.9z"/><path class="h" d="m9231.5 1489l-14-23.6v-0.2l-10.8 18.3 16.3 27.6 10.8-18.3-2.3-3.8z"/><path class="k" d="m11073.8 1935h-1000v-1000h1000z"/><path class="r" d="m10693.9 1372.9l-49 82.8-15.6-26.3-1.5-2.7 31.8-53.8z"/><path class="u" d="m10641.6 1461.3l-17.1-29-66.2-112h-104.6l118.5 200.4 17.2 29 13.9-23.6 3.2-5.4-17.1-29.1-84.2-142.4h35.8l66.3 112.1 17.2 29 35.1 59.4h34.3l-52.3-88.4z"/><path class="r" d="m10618.8 1491.9l-14.7-24.9-0.1-0.2-11.3 19.3 17.1 29 11.4-19.2-2.4-4z"/><path class="r" d="m12140.9 1935h-1000v-1000h1000z"/><path class="h" d="m11761 1372.9l-49 82.8-15.5-26.3-1.6-2.7 31.8-53.8z"/><path class="h" d="m11708.7 1461.3l-17.1-29-66.2-112h-104.5l118.4 200.4 17.2 29 13.9-23.6 3.2-5.4-17.1-29.1-84.2-142.4h35.8l66.3 112.1 17.2 29 35.1 59.4h34.3l-52.2-88.4z"/><path class="h" d="m11685.9 1491.9l-14.7-24.9-0.1-0.2-11.3 19.3 17.1 29 11.4-19.2-2.4-4z"/></svg>